<svg width="709" height="133" viewBox="0 0 709 133" fill="none" xmlns="http://www.w3.org/2000/svg">
<path d="M0.679688 105V102.504L14.5637 95.9525V11.0885L0.679688 4.53646V2.04047H121.112V4.53646L107.54 11.0885V95.9525L121.112 102.504V105H66.6677V102.504L77.8997 95.9525V10.6205H44.2037V95.9525L55.4357 102.504V105H0.679688Z" fill="black"/>
<path d="M186.325 106.56C178.421 106.56 171.141 105.26 164.485 102.66C157.829 99.9565 152.005 96.2645 147.013 91.5845C142.021 86.8005 138.121 81.1845 135.313 74.7365C132.609 68.2885 131.257 61.2165 131.257 53.5205C131.257 45.8245 132.609 38.7525 135.313 32.3045C138.121 25.8565 142.021 20.2925 147.013 15.6125C152.005 10.8285 157.829 7.13647 164.485 4.53646C171.141 1.83247 178.421 0.480469 186.325 0.480469C194.229 0.480469 201.509 1.83247 208.165 4.53646C214.925 7.13647 220.801 10.8285 225.793 15.6125C230.785 20.2925 234.633 25.8565 237.337 32.3045C240.145 38.7525 241.549 45.8245 241.549 53.5205C241.549 61.2165 240.145 68.2885 237.337 74.7365C234.633 81.1845 230.785 86.8005 225.793 91.5845C220.801 96.2645 214.925 99.9565 208.165 102.66C201.509 105.26 194.229 106.56 186.325 106.56ZM188.353 98.2925C192.721 98.2925 196.517 96.6285 199.741 93.3005C203.069 89.9725 205.669 85.3445 207.541 79.4165C209.413 73.3845 210.349 66.2605 210.349 58.0445C210.349 48.0605 209.205 39.3765 206.917 31.9925C204.629 24.6085 201.561 18.8885 197.713 14.8325C193.865 10.6725 189.497 8.59247 184.609 8.59247C180.345 8.59247 176.549 10.2565 173.221 13.5845C169.893 16.8085 167.241 21.4365 165.265 27.4685C163.393 33.3965 162.457 40.4685 162.457 48.6845C162.457 58.6685 163.601 67.4045 165.889 74.8925C168.281 82.2765 171.401 88.0485 175.249 92.2085C179.201 96.2645 183.569 98.2925 188.353 98.2925Z" fill="black"/>
<path d="M258.193 4.53646V2.04047H353.665V4.53646L340.093 11.0885V96.4205H356.005V132.456H353.509L336.661 105H265.681L248.833 132.456H246.337V96.4205H259.909C263.445 87.4765 266.045 78.5325 267.709 69.5885C269.477 60.6445 270.621 51.5445 271.141 42.2885C271.661 32.9285 271.921 23.1525 271.921 12.9605V11.0885L258.193 4.53646ZM310.453 96.4205V10.6205H282.841V12.4925C282.841 23.3085 282.581 33.3965 282.061 42.7565C281.541 52.0125 280.501 61.0085 278.941 69.7445C277.381 78.4805 275.093 87.3725 272.077 96.4205H310.453Z" fill="black"/>
<path d="M365.391 105V102.504L379.275 95.9525V11.0885L365.391 4.53646V2.04047H422.019C429.819 2.04047 436.787 2.92447 442.923 4.69247C449.163 6.35647 454.051 8.90447 457.587 12.3365C461.227 15.6645 463.047 19.9285 463.047 25.1285C463.047 30.4325 460.863 35.3205 456.495 39.7925C452.231 44.2645 446.147 47.3845 438.243 49.1525C448.851 50.6085 457.223 53.5725 463.359 58.0445C469.495 62.5165 472.563 68.1845 472.563 75.0485C472.563 80.7685 470.535 85.9165 466.479 90.4925C462.423 94.9645 456.859 98.5005 449.787 101.1C442.819 103.7 434.863 105 425.919 105H365.391ZM411.723 10.6205H408.915V48.3725H412.503C419.055 48.3725 424.151 46.7085 427.791 43.3805C431.535 40.0525 433.407 35.6325 433.407 30.1205C433.407 23.7765 431.587 18.9405 427.947 15.6125C424.411 12.2845 419.003 10.6205 411.723 10.6205ZM416.871 55.3925H408.915V96.4205H417.963C425.139 96.4205 430.807 94.4445 434.967 90.4925C439.127 86.5405 441.207 81.5485 441.207 75.5165C441.207 68.7565 439.075 63.7125 434.811 60.3845C430.651 57.0565 424.671 55.3925 416.871 55.3925Z" fill="black"/>
<path d="M477.29 105V102.504L486.494 97.0445L527.834 1.26047H545.774L586.646 97.0445L597.41 102.504V105H541.25V102.504L554.666 96.7325L544.682 72.7085H508.334L498.35 96.7325L511.142 102.504V105H477.29ZM511.922 64.1285H541.094L526.586 29.3405L511.922 64.1285Z" fill="black"/>
<path d="M651.236 105V102.504L664.808 95.9525V10.6205H637.196V23.4125C637.196 37.8685 636.832 49.5165 636.104 58.3565C635.376 67.1965 634.492 74.0085 633.452 78.7925C632.412 83.5765 631.372 87.0605 630.332 89.2445C627.836 94.3405 625.08 98.1365 622.064 100.632C619.048 103.128 616.032 104.74 613.016 105.468C610.104 106.196 607.452 106.56 605.06 106.56C602.668 106.56 601.16 106.248 600.536 105.624C600.016 105 599.756 103.804 599.756 102.036V87.8405L600.692 86.9045H602.096C605.84 86.9045 609.168 85.9165 612.08 83.9405C615.096 81.8605 617.644 78.4285 619.724 73.6445C621.804 68.8605 623.416 62.4125 624.56 54.3005C625.704 46.1885 626.276 36.0485 626.276 23.8805V11.0885L612.548 4.53646V2.04047H708.02V4.53646L694.448 11.0885V95.9525L708.02 102.504V105H651.236Z" fill="black"/>
</svg>
