<svg width="1281" height="317" viewBox="0 0 1281 317" fill="none" xmlns="http://www.w3.org/2000/svg">
<path d="M1281 216.5C1221.97 216.5 843.812 121.598 738 0C494.5 96.5 455.5 133.5 309.5 171.5C163.5 209.5 0.500009 317 0.500009 317H571.596H1281V216.5Z" fill="url(#paint0_linear)"/>
<mask id="mask0" mask-type="alpha" maskUnits="userSpaceOnUse" x="0" y="0" width="1281" height="317">
<path d="M1281 216.5C1221.97 216.5 843.812 121.598 738 0C494.5 96.5 455.5 133.5 309.5 171.5C163.5 209.5 0.500009 317 0.500009 317H571.596H1281V216.5Z" fill="#C4C4C4"/>
</mask>
<g mask="url(#mask0)">
<g style="mix-blend-mode:multiply" filter="url(#filter0_if)">
<path d="M738 0L-99 137V336H772.156C489.742 336 1152.68 212.535 729.393 125.5C605.697 100.066 609.859 90.8333 738 0Z" fill="url(#paint1_linear)" fill-opacity="0.6"/>
</g>
</g>
<defs>
<filter id="filter0_if" x="-100" y="-1" width="976" height="338" filterUnits="userSpaceOnUse" color-interpolation-filters="sRGB">
<feFlood flood-opacity="0" result="BackgroundImageFix"/>
<feBlend mode="normal" in="SourceGraphic" in2="BackgroundImageFix" result="shape"/>
<feColorMatrix in="SourceAlpha" type="matrix" values="0 0 0 0 0 0 0 0 0 0 0 0 0 0 0 0 0 0 127 0" result="hardAlpha"/>
<feOffset/>
<feGaussianBlur stdDeviation="60"/>
<feComposite in2="hardAlpha" operator="arithmetic" k2="-1" k3="1"/>
<feColorMatrix type="matrix" values="0 0 0 0 0 0 0 0 0 0 0 0 0 0 0 0 0 0 0.13 0"/>
<feBlend mode="normal" in2="shape" result="effect1_innerShadow"/>
<feGaussianBlur stdDeviation="0.5" result="effect2_foregroundBlur"/>
</filter>
<linearGradient id="paint0_linear" x1="1" y1="317" x2="1281" y2="1.41262e-05" gradientUnits="userSpaceOnUse">
<stop stop-color="#C79081"/>
<stop offset="1" stop-color="#DFA579"/>
</linearGradient>
<linearGradient id="paint1_linear" x1="161" y1="336" x2="861.718" y2="60.0079" gradientUnits="userSpaceOnUse">
<stop stop-color="white"/>
<stop offset="1"/>
</linearGradient>
</defs>
</svg>
