<svg width="720" height="780" viewBox="0 0 720 780" fill="none" xmlns="http://www.w3.org/2000/svg">
<path opacity="0.025641" d="M338.648 300.624L338.649 300.627C345.215 317.338 351.169 351.051 355.485 380.704C357.639 395.506 359.38 409.258 360.583 419.309C361.184 424.334 361.651 428.434 361.967 431.277C362.125 432.699 362.246 433.806 362.327 434.558C362.335 434.636 362.343 434.71 362.351 434.78C331.599 440.362 307.466 452.739 290.979 463.767C282.653 469.336 276.272 474.564 271.97 478.403C269.818 480.323 268.186 481.896 267.089 482.992C266.6 483.48 266.218 483.874 265.943 484.161C265.587 483.985 265.092 483.746 264.466 483.455C263.059 482.8 260.985 481.88 258.302 480.813C252.937 478.678 245.136 475.951 235.373 473.571C216.04 468.859 188.995 465.506 157.921 470.827C157.904 470.758 157.887 470.685 157.868 470.609C157.691 469.87 157.43 468.782 157.098 467.383C156.434 464.587 155.486 460.552 154.349 455.599C152.077 445.692 149.052 432.114 146.041 417.427C140.013 388.013 134.076 354.299 134.305 336.659C134.463 332.602 135.895 327.875 138.349 322.671C140.801 317.472 144.245 311.855 148.363 306.038C156.598 294.402 167.473 282.038 178.33 270.712C189.183 259.39 199.998 249.126 208.101 241.69C212.152 237.973 215.525 234.965 217.883 232.886C219.063 231.846 219.989 231.039 220.619 230.492C220.823 230.316 220.995 230.167 221.136 230.046C221.31 230.111 221.523 230.193 221.774 230.289C222.554 230.587 223.699 231.028 225.163 231.602C228.089 232.749 232.285 234.423 237.358 236.531C247.507 240.748 261.164 246.697 275.2 253.631C289.241 260.566 303.637 268.474 315.278 276.603C321.098 280.668 326.21 284.775 330.239 288.83C334.277 292.892 337.18 296.855 338.648 300.624Z" fill="#1C1C20" stroke="white" stroke-width="2"/>
<path opacity="0.0512821" d="M350.102 295.187L350.103 295.19C355.188 312.41 358.181 346.514 359.896 376.43C360.752 391.363 361.288 405.214 361.61 415.332C361.771 420.391 361.878 424.516 361.946 427.375C361.979 428.805 362.003 429.919 362.018 430.675C362.02 430.753 362.021 430.828 362.022 430.899C330.901 433.779 305.782 444.006 288.396 453.555C279.616 458.377 272.804 463.028 268.184 466.478C265.873 468.203 264.11 469.628 262.921 470.625C262.392 471.068 261.977 471.427 261.678 471.689C261.338 471.482 260.867 471.201 260.268 470.857C258.924 470.082 256.937 468.985 254.358 467.688C249.199 465.093 241.666 461.697 232.147 458.475C213.298 452.096 186.648 446.399 155.229 448.991C155.219 448.921 155.207 448.847 155.196 448.769C155.083 448.018 154.918 446.91 154.709 445.489C154.291 442.645 153.699 438.543 152.998 433.509C151.598 423.442 149.768 409.652 148.049 394.758C144.607 364.931 141.631 330.828 143.397 313.275C143.908 309.247 145.746 304.663 148.644 299.693C151.54 294.727 155.461 289.432 160.07 283.995C169.288 273.122 181.199 261.753 193.002 251.416C204.8 241.083 216.468 231.8 225.189 225.1C229.549 221.75 233.17 219.046 235.701 217.181C236.967 216.248 237.959 215.525 238.635 215.035C238.853 214.877 239.038 214.744 239.189 214.635C239.356 214.716 239.562 214.815 239.804 214.933C240.554 215.298 241.657 215.838 243.065 216.537C245.88 217.934 249.914 219.968 254.784 222.51C264.527 227.595 277.613 234.712 290.991 242.842C304.375 250.975 318.027 260.107 328.915 269.221C334.358 273.777 339.093 278.314 342.754 282.705C346.422 287.103 348.968 291.304 350.102 295.187Z" fill="#1C1C20" stroke="white" stroke-width="2"/>
<path opacity="0.0769231" d="M361.701 291.031L361.701 291.034C365.266 308.632 365.275 342.867 364.376 372.819C363.927 387.77 363.254 401.615 362.693 411.722C362.413 416.775 362.16 420.894 361.978 423.749C361.887 425.176 361.813 426.288 361.763 427.042C361.757 427.121 361.752 427.195 361.748 427.266C330.494 427.422 304.578 435.421 286.427 443.418C277.26 447.457 270.069 451.497 265.165 454.531C262.713 456.048 260.832 457.314 259.561 458.203C258.995 458.599 258.551 458.92 258.23 459.155C257.909 458.92 257.464 458.599 256.898 458.203C255.626 457.314 253.743 456.048 251.286 454.531C246.373 451.497 239.165 447.456 229.963 443.418C211.742 435.42 185.69 427.422 154.164 427.266C154.16 427.195 154.155 427.12 154.15 427.042C154.103 426.283 154.036 425.166 153.951 423.731C153.783 420.862 153.55 416.724 153.291 411.649C152.774 401.498 152.152 387.6 151.738 372.614C150.909 342.6 150.916 308.368 154.205 291.035C155.065 287.067 157.296 282.661 160.617 277.962C163.934 273.268 168.302 268.334 173.367 263.32C183.497 253.291 196.354 243.004 209.013 233.735C221.667 224.47 234.1 216.239 243.371 210.324C248.006 207.367 251.85 204.989 254.534 203.351C255.876 202.533 256.928 201.899 257.644 201.47C257.875 201.331 258.071 201.214 258.23 201.119C258.39 201.214 258.585 201.331 258.816 201.47C259.532 201.899 260.584 202.532 261.925 203.351C264.608 204.989 268.449 207.367 273.08 210.324C282.342 216.239 294.758 224.469 307.377 233.734C320.001 243.003 332.805 253.29 342.857 263.317C347.883 268.331 352.204 273.263 355.468 277.956C358.739 282.658 360.91 287.065 361.701 291.031Z" fill="#1C1C20" stroke="white" stroke-width="2"/>
<path opacity="0.102564" d="M373.331 288.165L373.331 288.168C375.349 306.009 372.374 340.114 368.868 369.874C367.118 384.729 365.241 398.463 363.801 408.483C363.081 413.492 362.471 417.573 362.04 420.402C361.825 421.816 361.655 422.916 361.538 423.664C361.526 423.741 361.515 423.815 361.504 423.885C330.355 421.317 303.841 427.026 285.062 433.411C275.578 436.636 268.062 440.034 262.912 442.629C260.337 443.926 258.353 445.024 257.01 445.798C256.412 446.143 255.941 446.424 255.601 446.63C255.302 446.368 254.887 446.01 254.357 445.566C253.167 444.57 251.402 443.144 249.087 441.419C244.457 437.968 237.628 433.315 228.813 428.49C211.358 418.934 186.102 408.696 154.711 405.793C154.712 405.722 154.714 405.647 154.716 405.568C154.736 404.809 154.765 403.69 154.807 402.253C154.889 399.381 155.018 395.238 155.202 390.159C155.571 380.001 156.163 366.103 157.057 351.137C158.846 321.165 161.837 287.064 166.625 270.084C167.827 266.206 170.434 262.011 174.151 257.62C177.865 253.232 182.646 248.698 188.129 244.144C199.095 235.037 212.799 225.909 226.218 217.779C239.631 209.651 252.734 202.536 262.486 197.451C267.361 194.909 271.397 192.876 274.214 191.478C275.622 190.779 276.725 190.24 277.476 189.875C277.718 189.757 277.923 189.658 278.09 189.577C278.241 189.685 278.426 189.819 278.644 189.977C279.32 190.467 280.312 191.19 281.577 192.122C284.107 193.988 287.726 196.691 292.081 200.04C300.793 206.74 312.444 216.021 324.208 226.351C335.976 236.684 347.834 248.048 356.974 258.914C361.544 264.346 365.419 269.637 368.262 274.596C371.11 279.565 372.888 284.144 373.331 288.165Z" fill="#1C1C20" stroke="white" stroke-width="2"/>
<path opacity="0.128205" d="M384.88 286.585L384.881 286.588C385.336 304.537 379.399 338.253 373.313 367.594C370.275 382.24 367.208 395.758 364.9 405.614C363.746 410.542 362.783 414.555 362.107 417.335C361.77 418.724 361.504 419.806 361.323 420.54C361.305 420.617 361.287 420.689 361.27 420.758C330.463 415.485 303.553 418.862 284.288 423.586C274.559 425.971 266.776 428.701 261.42 430.838C258.741 431.906 256.669 432.826 255.263 433.481C254.638 433.772 254.144 434.011 253.787 434.187C253.512 433.899 253.13 433.506 252.641 433.018C251.542 431.922 249.908 430.348 247.752 428.427C243.441 424.586 237.043 419.355 228.683 413.78C212.127 402.74 187.859 390.339 156.84 384.711C156.848 384.641 156.856 384.566 156.865 384.488C156.951 383.733 157.078 382.621 157.244 381.194C157.577 378.339 158.066 374.223 158.692 369.18C159.945 359.093 161.746 345.299 163.941 330.468C168.336 300.766 174.288 267.055 180.537 250.557C182.073 246.799 185.035 242.847 189.121 238.796C193.203 234.749 198.361 230.649 204.22 226.591C215.938 218.474 230.386 210.575 244.462 203.645C258.532 196.718 272.206 190.771 282.363 186.556C287.442 184.449 291.64 182.775 294.567 181.628C296.031 181.054 297.177 180.613 297.956 180.315C298.208 180.219 298.421 180.137 298.595 180.071C298.735 180.193 298.908 180.342 299.111 180.518C299.742 181.065 300.667 181.872 301.846 182.911C304.204 184.99 307.574 187.998 311.621 191.715C319.715 199.148 330.513 209.409 341.332 220.725C352.154 232.045 362.977 244.399 371.135 256.02C375.214 261.83 378.614 267.438 381.013 272.626C383.418 277.824 384.79 282.541 384.88 286.585Z" fill="#1C1C20" stroke="white" stroke-width="2"/>
<path opacity="0.153846" d="M318.906 172.838C319.165 172.764 319.385 172.702 319.563 172.652C319.693 172.785 319.852 172.948 320.039 173.142C320.619 173.741 321.471 174.626 322.555 175.764C324.722 178.04 327.817 181.331 331.525 185.386C338.941 193.496 348.803 204.66 358.594 216.875C368.389 229.095 378.094 242.345 385.209 254.633C388.766 260.777 391.663 266.659 393.602 272.037C395.544 277.425 396.5 282.244 396.237 286.28L396.237 286.283C395.126 304.204 386.274 337.274 377.653 365.973C373.35 380.298 369.117 393.497 365.959 403.115C364.38 407.924 363.071 411.837 362.156 414.547C361.698 415.902 361.339 416.957 361.095 417.673C361.07 417.747 361.046 417.817 361.023 417.884C330.793 409.947 303.691 410.965 284.088 413.992C274.188 415.521 266.196 417.562 260.674 419.223C257.913 420.054 255.768 420.79 254.311 421.32C253.662 421.556 253.149 421.75 252.779 421.895C252.53 421.584 252.183 421.159 251.738 420.63C250.74 419.442 249.249 417.732 247.268 415.631C243.308 411.429 237.391 405.66 229.548 399.378C214.018 386.937 190.923 372.468 160.513 364.158C160.527 364.088 160.542 364.015 160.557 363.938C160.708 363.193 160.932 362.096 161.222 360.689C161.802 357.874 162.648 353.816 163.711 348.847C165.839 338.908 168.835 325.323 172.314 310.74C179.281 281.534 188.148 248.47 195.811 232.58C197.669 228.969 200.964 225.291 205.388 221.612C209.807 217.936 215.303 214.301 221.493 210.768C233.874 203.703 248.955 197.094 263.582 191.417C278.202 185.743 292.342 181.011 302.829 177.697C308.071 176.04 312.399 174.738 315.415 173.851C316.923 173.407 318.104 173.067 318.906 172.838Z" fill="#1C1C20" stroke="white" stroke-width="2"/>
<path opacity="0.179487" d="M340.142 167.479C340.406 167.428 340.63 167.385 340.813 167.35C340.93 167.494 341.074 167.671 341.244 167.88C341.77 168.528 342.541 169.483 343.522 170.711C345.482 173.168 348.279 176.716 351.619 181.078C358.3 189.804 367.152 201.785 375.841 214.807C384.533 227.834 393.047 241.88 399.063 254.741C402.071 261.171 404.445 267.284 405.907 272.81C407.372 278.347 407.905 283.23 407.292 287.229L407.291 287.232C404.622 304.987 392.921 337.16 381.833 364.999C376.297 378.895 370.93 391.674 366.946 400.98C364.954 405.633 363.308 409.417 362.16 412.037C361.586 413.348 361.137 414.367 360.831 415.058C360.799 415.13 360.769 415.198 360.741 415.263C331.318 404.721 304.23 403.374 284.438 404.68C274.442 405.34 266.303 406.677 260.657 407.851C257.834 408.438 255.634 408.984 254.135 409.385C253.469 409.563 252.941 409.713 252.559 409.824C252.338 409.493 252.03 409.039 251.633 408.474C250.742 407.203 249.405 405.37 247.616 403.104C244.037 398.572 238.645 392.31 231.379 385.368C216.992 371.621 195.247 355.194 165.676 344.265C165.696 344.197 165.717 344.126 165.74 344.05C165.955 343.322 166.273 342.248 166.685 340.872C167.508 338.118 168.705 334.149 170.197 329.292C173.183 319.576 177.352 306.304 182.088 292.08C191.574 263.592 203.289 231.427 212.308 216.264C214.474 212.83 218.077 209.452 222.804 206.173C227.527 202.896 233.319 199.754 239.793 196.774C252.743 190.816 268.343 185.545 283.408 181.165C298.468 176.787 312.966 173.305 323.702 170.917C329.069 169.724 333.494 168.804 336.576 168.183C338.117 167.873 339.322 167.637 340.142 167.479Z" fill="#1C1C20" stroke="white" stroke-width="2"/>
<path opacity="0.205128" d="M417.935 289.399L417.934 289.402C413.728 306.858 399.267 337.889 385.794 364.655C379.069 378.015 372.608 390.278 367.828 399.202C365.438 403.663 363.469 407.289 362.097 409.8C361.411 411.055 360.875 412.031 360.51 412.693C360.472 412.762 360.436 412.827 360.402 412.889C332.01 399.823 305.142 396.12 285.312 395.697C275.297 395.483 267.072 396.105 261.345 396.783C258.482 397.121 256.242 397.474 254.715 397.742C254.035 397.862 253.496 397.965 253.106 398.042C252.915 397.694 252.647 397.214 252.301 396.616C251.524 395.273 250.352 393.33 248.767 390.917C245.597 386.091 240.771 379.383 234.138 371.833C221.004 356.885 200.773 338.625 172.268 325.161C172.293 325.095 172.321 325.025 172.35 324.952C172.628 324.245 173.038 323.204 173.568 321.868C174.628 319.196 176.166 315.347 178.076 310.638C181.897 301.219 187.207 288.361 193.166 274.604C205.098 247.052 219.572 216.03 229.878 201.711C232.335 198.478 236.219 195.428 241.214 192.573C246.204 189.72 252.248 187.095 258.957 184.691C272.377 179.883 288.377 175.993 303.767 172.942C319.151 169.893 333.897 167.688 344.8 166.245C350.251 165.524 354.739 164.994 357.863 164.644C359.426 164.469 360.647 164.339 361.477 164.252C361.745 164.225 361.972 164.202 362.157 164.183C362.261 164.336 362.389 164.525 362.54 164.748C363.008 165.439 363.693 166.458 364.562 167.767C366.302 170.385 368.778 174.163 371.725 178.8C377.62 188.076 385.394 200.782 392.915 214.512C400.439 228.247 407.696 242.982 412.569 256.318C415.005 262.986 416.837 269.282 417.812 274.915C418.789 280.558 418.894 285.47 417.935 289.399Z" fill="#1C1C20" stroke="white" stroke-width="2"/>
<path opacity="0.230769" d="M382.726 163.16C382.996 163.156 383.224 163.153 383.409 163.15C383.5 163.312 383.611 163.511 383.742 163.747C384.147 164.476 384.741 165.551 385.493 166.931C386.998 169.69 389.136 173.67 391.667 178.546C396.732 188.3 403.369 201.635 409.664 215.969C415.963 230.307 421.908 245.618 425.599 259.328C427.445 266.183 428.721 272.615 429.202 278.312C429.683 284.019 429.36 288.92 428.062 292.752L428.061 292.754C422.349 309.777 405.239 339.429 389.485 364.919C381.621 377.643 374.115 389.296 368.576 397.769C365.806 402.005 363.528 405.446 361.943 407.827C361.15 409.018 360.531 409.943 360.11 410.571C360.066 410.636 360.024 410.698 359.985 410.757C332.84 395.266 306.397 389.235 286.679 387.085C276.721 386 268.473 385.903 262.709 386.079C259.827 386.166 257.565 386.322 256.02 386.457C255.332 386.516 254.787 386.572 254.392 386.615C254.231 386.251 254.006 385.751 253.714 385.125C253.057 383.719 252.059 381.681 250.69 379.139C247.952 374.055 243.73 366.952 237.78 358.853C225.999 342.816 207.436 322.863 180.213 306.965C180.244 306.902 180.278 306.835 180.313 306.765C180.651 306.084 181.151 305.083 181.795 303.799C183.084 301.23 184.952 297.529 187.265 293.004C191.892 283.954 198.303 271.608 205.437 258.422C219.726 232.015 236.849 202.373 248.363 189.007C251.092 186 255.227 183.3 260.452 180.891C265.673 178.484 271.922 176.396 278.815 174.586C292.603 170.966 308.881 168.485 324.478 166.787C340.07 165.09 354.952 164.179 365.939 163.692C371.432 163.449 375.949 163.311 379.092 163.235C380.664 163.197 381.892 163.174 382.726 163.16Z" fill="#1C1C20" stroke="white" stroke-width="2"/>
<path opacity="0.25641" d="M405.052 163.284C404.142 163.698 404.142 163.699 404.142 163.699L404.144 163.703L404.15 163.716L404.175 163.772L404.275 163.992C404.306 164.062 404.343 164.143 404.385 164.236M405.052 163.284C405.052 163.284 291.866 154.385 266.911 177.499M405.052 163.284C405.052 163.284 452.125 266.599 438.487 297.638L405.052 163.284ZM404.385 164.236C404.2 164.223 403.972 164.206 403.703 164.187C402.871 164.127 401.646 164.043 400.077 163.944C396.939 163.747 392.427 163.49 386.934 163.253C375.946 162.781 361.041 162.392 345.361 162.723C329.675 163.055 313.243 164.108 299.192 166.512C292.167 167.714 285.76 169.251 280.349 171.193C274.934 173.137 270.58 175.467 267.599 178.224M404.385 164.236C404.461 164.405 404.554 164.614 404.664 164.859C405.005 165.621 405.502 166.744 406.131 168.184C407.39 171.064 409.173 175.215 411.27 180.293C415.464 190.451 420.914 204.315 425.937 219.142C430.961 233.975 435.549 249.746 438.032 263.726C439.273 270.715 439.984 277.234 439.966 282.951C439.948 288.678 439.199 293.533 437.572 297.236L437.57 297.239C430.397 313.699 410.768 341.747 392.852 365.767C383.909 377.757 375.416 388.712 369.159 396.669C366.031 400.648 363.462 403.877 361.675 406.111C360.782 407.228 360.084 408.096 359.61 408.685C359.56 408.746 359.514 408.804 359.469 408.859C333.778 391.061 307.961 382.749 288.505 378.889C278.68 376.939 270.472 376.124 264.714 375.797C261.835 375.633 259.569 375.591 258.018 375.59C257.328 375.59 256.779 375.598 256.382 375.606C256.254 375.23 256.073 374.711 255.836 374.062C255.304 372.605 254.488 370.488 253.346 367.836C251.062 362.532 247.474 355.088 242.253 346.502C231.914 329.5 215.161 308.005 189.427 289.795C189.464 289.734 189.503 289.67 189.544 289.603C189.941 288.955 190.526 288.001 191.28 286.778C192.788 284.331 194.97 280.807 197.669 276.501C203.068 267.889 210.53 256.149 218.787 243.635C235.322 218.573 254.963 190.536 267.599 178.224M404.385 164.236L266.911 177.499M267.599 178.224C267.602 178.221 267.605 178.219 267.608 178.216L266.911 177.499M267.599 178.224C267.596 178.227 267.593 178.23 267.59 178.233L266.911 177.499" fill="#1C1C20" stroke="white" stroke-width="2"/>
<path opacity="0.282051" d="M446.368 302.795L446.367 302.798C437.786 318.57 415.787 344.801 395.846 367.167C385.892 378.332 376.477 388.505 369.55 395.887C366.087 399.578 363.246 402.571 361.272 404.641C360.284 405.676 359.513 406.48 358.99 407.025C358.935 407.082 358.884 407.135 358.835 407.186C334.792 387.217 309.798 376.686 290.753 371.145C281.134 368.346 273.029 366.819 267.322 365.991C264.468 365.577 262.214 365.338 260.669 365.202C259.981 365.141 259.434 365.101 259.037 365.075C258.943 364.689 258.808 364.157 258.629 363.49C258.226 361.991 257.597 359.811 256.69 357.07C254.877 351.587 251.952 343.859 247.499 334.85C238.682 317.011 223.866 294.138 199.817 273.754C199.859 273.697 199.903 273.637 199.95 273.574C200.401 272.963 201.067 272.063 201.925 270.91C203.641 268.604 206.122 265.284 209.186 261.23C215.315 253.121 223.772 242.076 233.088 230.329C251.745 206.804 273.754 180.586 287.415 169.422C290.625 166.935 295.166 164.994 300.73 163.529C306.289 162.065 312.805 161.093 319.909 160.508C334.116 159.337 350.577 159.721 366.232 160.757C381.881 161.793 396.696 163.48 407.6 164.909C413.052 165.623 417.525 166.272 420.633 166.743C422.188 166.978 423.401 167.168 424.225 167.3C424.491 167.343 424.716 167.379 424.9 167.409C424.961 167.584 425.035 167.8 425.123 168.054C425.396 168.843 425.794 170.004 426.295 171.494C427.298 174.473 428.712 178.763 430.359 184.005C433.652 194.49 437.873 208.775 441.584 223.984C445.297 239.199 448.493 255.309 449.747 269.452C450.375 276.523 450.515 283.079 449.999 288.772C449.482 294.476 448.312 299.248 446.368 302.795Z" fill="#1C1C20" stroke="white" stroke-width="2"/>
<path opacity="0.307692" d="M358.062 405.727C335.851 383.738 311.87 371.069 293.38 363.888C284.042 360.262 276.101 358.034 270.488 356.712C267.681 356.051 265.456 355.616 263.929 355.346C263.249 355.226 262.708 355.138 262.315 355.078C262.254 354.685 262.166 354.143 262.046 353.463C261.775 351.935 261.339 349.708 260.674 346.898C259.346 341.279 257.106 333.325 253.455 323.962C246.226 305.423 233.46 281.345 211.278 258.943C211.325 258.89 211.375 258.834 211.427 258.775C211.93 258.206 212.672 257.368 213.627 256.294C215.537 254.146 218.298 251.055 221.704 247.283C228.516 239.739 237.903 229.473 248.207 218.583C268.844 196.773 293.055 172.573 307.637 162.642C311.051 160.445 315.744 158.906 321.414 157.932C327.08 156.958 333.656 156.558 340.784 156.594C355.038 156.666 371.404 158.483 386.909 160.88C402.408 163.276 417.02 166.248 427.758 168.621C433.127 169.808 437.525 170.844 440.581 171.584C442.109 171.954 443.301 172.249 444.111 172.452C444.372 172.518 444.593 172.574 444.773 172.619C444.819 172.799 444.875 173.02 444.94 173.282C445.143 174.091 445.439 175.283 445.808 176.81C446.547 179.865 447.582 184.263 448.765 189.628C451.132 200.36 454.092 214.959 456.463 230.433C458.836 245.914 460.616 262.241 460.633 276.44C460.642 283.539 460.21 290.082 459.2 295.709C458.187 301.346 456.606 305.997 454.361 309.361L454.359 309.364C444.437 324.328 420.235 348.542 398.42 369.086C387.531 379.34 377.265 388.654 369.721 395.404C365.95 398.779 362.859 401.513 360.711 403.403C359.638 404.348 358.8 405.082 358.23 405.579C358.171 405.631 358.115 405.68 358.062 405.727Z" fill="#1C1C20" stroke="white" stroke-width="2"/>
<path opacity="0.333333" d="M463.186 179.58C463.44 179.668 463.656 179.743 463.831 179.804C463.861 179.988 463.897 180.213 463.94 180.479C464.071 181.303 464.262 182.516 464.497 184.07C464.966 187.177 465.614 191.648 466.326 197.096C467.748 207.994 469.424 222.795 470.438 238.417C471.452 254.046 471.802 270.466 470.582 284.612C469.972 291.685 468.971 298.166 467.474 303.683C465.975 309.21 463.994 313.706 461.464 316.862L461.462 316.864C450.273 330.907 424.054 352.919 400.531 371.483C388.79 380.75 377.751 389.133 369.648 395.201C365.596 398.234 362.279 400.688 359.975 402.384C358.823 403.231 357.924 403.889 357.314 404.335C357.25 404.382 357.19 404.426 357.133 404.467C336.923 380.626 314.138 365.915 296.344 357.151C287.358 352.725 279.64 349.813 274.164 348.007C271.426 347.103 269.247 346.476 267.749 346.074C267.082 345.895 266.551 345.761 266.164 345.666C266.139 345.269 266.098 344.722 266.037 344.034C265.901 342.488 265.66 340.232 265.243 337.375C264.41 331.661 262.871 323.542 260.05 313.897C254.464 294.798 243.845 269.699 223.701 245.449C223.752 245.4 223.807 245.349 223.864 245.295C224.414 244.771 225.227 244.001 226.271 243.015C228.361 241.041 231.382 238.203 235.103 234.742C242.546 227.821 252.793 218.412 264.007 208.461C286.466 188.533 312.694 166.535 328.086 157.913C331.679 156.021 336.488 154.898 342.222 154.422C347.95 153.945 354.537 154.12 361.634 154.777C375.828 156.091 391.973 159.327 407.21 163.066C422.441 166.804 436.738 171.038 447.229 174.338C452.474 175.988 456.766 177.404 459.745 178.408C461.235 178.909 462.397 179.308 463.186 179.58Z" fill="#1C1C20" stroke="white" stroke-width="2"/>
<path opacity="0.358974" d="M467.601 325.215L467.599 325.218C455.228 338.231 427.19 357.875 402.139 374.318C389.634 382.526 377.907 389.916 369.306 395.254C365.006 397.923 361.487 400.078 359.044 401.566C357.822 402.31 356.87 402.888 356.223 403.279C356.155 403.319 356.092 403.358 356.031 403.395C337.976 377.883 316.56 361.242 299.597 350.96C291.031 345.768 283.597 342.194 278.299 339.917C275.65 338.779 273.534 337.964 272.077 337.433C271.428 337.197 270.91 337.017 270.534 336.889C270.542 336.491 270.55 335.942 270.549 335.251C270.548 333.7 270.505 331.431 270.339 328.548C270.006 322.784 269.181 314.562 267.212 304.707C263.311 285.194 254.92 259.266 236.966 233.352C237.022 233.308 237.08 233.261 237.142 233.212C237.736 232.739 238.612 232.043 239.739 231.151C241.993 229.367 245.249 226.803 249.258 223.68C257.276 217.433 268.304 208.953 280.343 200.018C304.453 182.123 332.499 162.494 348.583 155.247C352.327 153.676 357.216 152.976 362.969 153.001C368.718 153.026 375.264 153.774 382.277 155.047C396.302 157.593 412.104 162.224 426.957 167.277C441.805 172.328 455.678 177.792 465.841 181.994C470.922 184.094 475.074 185.879 477.955 187.138C479.396 187.768 480.519 188.266 481.281 188.606C481.526 188.716 481.735 188.81 481.904 188.886C481.918 189.071 481.934 189.299 481.953 189.567C482.013 190.399 482.097 191.624 482.195 193.193C482.392 196.33 482.648 200.84 482.882 206.329C483.349 217.31 483.729 232.2 483.377 247.852C483.025 263.509 481.943 279.897 479.494 293.883C478.27 300.876 476.709 307.245 474.737 312.61C472.761 317.986 470.396 322.292 467.601 325.215Z" fill="#1C1C20" stroke="white" stroke-width="2"/>
<path opacity="0.384615" d="M498.83 199.77C498.828 199.955 498.824 200.184 498.82 200.453C498.806 201.287 498.783 202.515 498.745 204.086C498.668 207.228 498.529 211.743 498.284 217.232C497.793 228.211 496.873 243.079 495.158 258.64C493.444 274.206 490.937 290.438 487.279 304.158C485.45 311.017 483.339 317.226 480.907 322.399C478.47 327.582 475.739 331.665 472.699 334.334L472.697 334.336C459.24 346.222 429.596 363.347 403.207 377.545C390.035 384.632 377.708 390.971 368.675 395.539C364.158 397.823 360.465 399.664 357.901 400.933C356.62 401.568 355.62 402.06 354.941 402.393C354.871 402.428 354.804 402.461 354.741 402.492C338.978 375.503 319.093 357.059 303.092 345.338C295.01 339.419 287.916 335.211 282.836 332.481C280.297 331.116 278.26 330.12 276.855 329.464C276.229 329.172 275.729 328.948 275.365 328.788C275.408 328.392 275.464 327.846 275.523 327.158C275.657 325.612 275.812 323.348 275.897 320.462C276.069 314.69 275.963 306.427 274.86 296.439C272.676 276.66 266.576 250.099 250.949 222.719C251.008 222.68 251.07 222.639 251.136 222.595C251.769 222.176 252.703 221.558 253.903 220.768C256.304 219.188 259.771 216.917 264.037 214.155C272.569 208.631 284.294 201.144 297.066 193.292C322.644 177.567 352.294 160.457 368.949 154.639C372.815 153.4 377.746 153.129 383.476 153.655C389.2 154.181 395.656 155.497 402.531 157.376C416.282 161.135 431.619 167.126 445.976 173.454C460.327 179.78 473.671 186.432 483.429 191.504C488.308 194.04 492.289 196.179 495.049 197.685C496.429 198.437 497.504 199.032 498.234 199.437C498.469 199.568 498.668 199.679 498.83 199.77Z" fill="#1C1C20" stroke="white" stroke-width="2"/>
<path opacity="0.410256" d="M353.247 401.742C339.897 373.483 321.695 353.376 306.776 340.305C299.242 333.704 292.541 328.894 287.719 325.732C285.307 324.15 283.365 322.981 282.023 322.205C281.425 321.859 280.946 321.592 280.597 321.401C280.675 321.011 280.778 320.471 280.897 319.791C281.165 318.262 281.517 316.021 281.854 313.153C282.527 307.418 283.143 299.178 282.914 289.131C282.462 269.237 278.701 242.246 265.519 213.608C265.581 213.574 265.647 213.538 265.716 213.501C266.383 213.138 267.367 212.604 268.632 211.922C271.161 210.557 274.813 208.596 279.304 206.217C288.285 201.458 300.618 195.021 314.025 188.312C340.876 174.876 371.904 160.416 389.003 156.072C392.963 155.174 397.899 155.334 403.561 156.357C409.217 157.38 415.534 159.253 422.219 161.725C435.59 166.668 450.347 173.973 464.097 181.528C477.842 189.081 490.556 196.871 499.835 202.774C504.474 205.725 508.253 208.203 510.872 209.943C512.181 210.814 513.2 211.499 513.892 211.967C514.115 212.118 514.304 212.246 514.457 212.35C514.438 212.535 514.415 212.762 514.387 213.03C514.301 213.86 514.171 215.081 513.996 216.642C513.645 219.766 513.114 224.252 512.391 229.699C510.945 240.593 508.732 255.324 505.669 270.676C502.603 286.034 498.691 301.986 493.852 315.334C491.432 322.008 488.788 328.009 485.914 332.95C483.035 337.902 479.959 341.731 476.698 344.125L476.695 344.127C462.253 354.795 431.23 369.271 403.704 381.114C389.964 387.026 377.132 392.267 367.734 396.031C363.036 397.912 359.196 399.424 356.532 400.465C355.2 400.986 354.161 401.389 353.456 401.662C353.383 401.69 353.313 401.717 353.247 401.742Z" fill="#1C1C20" stroke="white" stroke-width="2"/>
<path opacity="0.435897" d="M528.112 226.076C528.321 226.245 528.498 226.389 528.642 226.507C528.635 226.542 528.628 226.578 528.621 226.616C528.59 226.776 528.554 226.964 528.513 227.178C528.355 227.997 528.119 229.202 527.808 230.742C527.187 233.824 526.266 238.246 525.071 243.609C522.681 254.336 519.194 268.818 514.803 283.845C510.411 298.877 505.124 314.427 499.139 327.303C496.147 333.74 492.99 339.488 489.696 344.16C486.397 348.842 482.998 352.389 479.541 354.489L479.539 354.491C464.221 363.859 432.054 375.577 403.601 384.976C389.398 389.668 376.158 393.771 366.469 396.7C361.624 398.165 357.667 399.337 354.922 400.142C353.55 400.544 352.48 400.855 351.754 401.066C351.679 401.088 351.607 401.108 351.539 401.128C340.702 371.813 324.322 350.196 310.599 335.874C303.669 328.641 297.413 323.266 292.884 319.695C290.62 317.91 288.787 316.575 287.517 315.685C286.952 315.289 286.498 314.981 286.168 314.76C286.279 314.378 286.428 313.85 286.607 313.183C287.007 311.683 287.553 309.481 288.138 306.653C289.309 300.999 290.64 292.843 291.288 282.815C292.571 262.958 291.177 235.741 280.541 206.063C280.606 206.035 280.675 206.005 280.747 205.974C281.444 205.67 282.47 205.224 283.789 204.655C286.428 203.515 290.237 201.881 294.918 199.902C304.28 195.943 317.126 190.606 331.067 185.092C358.988 174.047 391.158 162.346 408.57 159.508C412.593 158.959 417.497 159.549 423.047 161.062C428.594 162.574 434.723 164.99 441.167 168.035C454.056 174.125 468.121 182.688 481.16 191.413C494.194 200.135 506.181 209.003 514.91 215.692C519.274 219.036 522.823 221.835 525.28 223.797C526.509 224.778 527.464 225.549 528.112 226.076Z" fill="#1C1C20" stroke="white" stroke-width="2"/>
<path opacity="0.461538" d="M293.273 309.932C292.745 309.488 292.319 309.141 292.009 308.893C292.153 308.522 292.348 308.009 292.584 307.359C293.113 305.901 293.849 303.754 294.679 300.989C296.338 295.458 298.375 287.449 299.894 277.516C302.903 257.846 303.886 230.611 295.878 200.119C295.945 200.097 296.016 200.073 296.09 200.048C296.811 199.806 297.872 199.452 299.236 198.999C301.964 198.094 305.901 196.798 310.737 195.234C320.408 192.107 333.671 187.91 348.039 183.631C376.816 175.061 409.884 166.209 427.477 164.9C431.533 164.703 436.366 165.718 441.764 167.709C447.157 169.699 453.053 172.64 459.207 176.235C471.516 183.425 484.781 193.181 497.01 203.009C509.235 212.834 520.403 222.713 528.516 230.138C532.572 233.85 535.863 236.947 538.14 239.116C539.278 240.2 540.163 241.052 540.762 241.632C540.956 241.82 541.119 241.979 541.252 242.108C541.202 242.287 541.14 242.506 541.066 242.765C540.837 243.568 540.497 244.747 540.053 246.255C539.165 249.27 537.863 253.596 536.205 258.834C532.889 269.312 528.153 283.435 522.469 298.022C516.784 312.614 510.161 327.644 503.077 339.949C499.535 346.102 495.889 351.552 492.201 355.92C488.506 360.296 484.811 363.533 481.184 365.324L481.182 365.325C465.106 373.324 432.04 382.193 402.876 389.076C388.318 392.513 374.771 395.446 364.863 397.52C359.909 398.557 355.865 399.379 353.061 399.942C351.658 400.223 350.566 400.44 349.824 400.586C349.747 400.601 349.674 400.616 349.604 400.629C341.364 370.481 326.93 347.519 314.507 332.056C308.234 324.246 302.47 318.346 298.27 314.394C296.17 312.418 294.461 310.929 293.273 309.932Z" fill="#1C1C20" stroke="white" stroke-width="2"/>
<path opacity="0.487179" d="M347.657 400.203C347.579 400.211 347.504 400.219 347.434 400.227C341.853 369.475 329.475 345.342 318.447 328.855C312.878 320.529 307.651 314.148 303.811 309.846C301.891 307.694 300.318 306.062 299.222 304.965C298.734 304.476 298.341 304.094 298.054 303.819C298.23 303.462 298.468 302.968 298.76 302.342C299.414 300.935 300.334 298.861 301.402 296.178C303.537 290.813 306.264 283.012 308.643 273.249C313.355 253.916 316.708 226.87 311.388 195.797C311.457 195.78 311.529 195.763 311.606 195.744C312.344 195.566 313.433 195.306 314.831 194.974C317.627 194.31 321.662 193.362 326.616 192.225C336.523 189.953 350.101 186.928 364.788 183.917C394.202 177.889 427.915 171.952 445.556 172.181C449.613 172.339 454.339 173.771 459.543 176.225C464.742 178.677 470.359 182.121 476.177 186.239C487.812 194.474 500.176 205.349 511.502 216.206C522.824 227.059 533.089 237.874 540.524 245.977C544.241 250.028 547.25 253.401 549.329 255.759C550.368 256.939 551.175 257.865 551.722 258.495C551.898 258.699 552.048 258.871 552.169 259.012C552.159 259.038 552.149 259.065 552.138 259.093C552.078 259.25 552.007 259.436 551.926 259.65C551.628 260.429 551.186 261.575 550.613 263.038C549.466 265.965 547.791 270.16 545.683 275.234C541.466 285.383 535.517 299.039 528.584 313.076C521.648 327.117 513.741 341.513 505.611 353.154C501.547 358.974 497.44 364.086 493.385 368.115C489.323 372.152 485.36 375.056 481.59 376.524L481.588 376.525C464.876 383.091 431.163 389.045 401.51 393.361C386.708 395.515 372.957 397.256 362.906 398.459C357.88 399.06 353.78 399.527 350.937 399.843C349.516 400.001 348.408 400.122 347.657 400.203Z" fill="#1C1C20" stroke="white" stroke-width="2"/>
<path opacity="0.512821" d="M345.245 399.894C345.166 399.896 345.092 399.897 345.021 399.898C342.141 368.777 331.914 343.658 322.365 326.272C317.543 317.492 312.891 310.68 309.441 306.06C307.716 303.749 306.291 301.986 305.295 300.797C304.852 300.268 304.493 299.853 304.231 299.554C304.437 299.214 304.718 298.743 305.063 298.144C305.838 296.8 306.935 294.813 308.232 292.234C310.827 287.075 314.223 279.542 317.445 270.023C323.824 251.174 329.521 224.524 326.929 193.105C326.999 193.095 327.073 193.083 327.151 193.072C327.902 192.959 329.009 192.794 330.431 192.585C333.275 192.167 337.377 191.575 342.41 190.874C352.478 189.474 366.268 187.644 381.161 185.925C410.989 182.483 445.091 179.507 462.645 181.273C466.673 181.784 471.257 183.622 476.227 186.52C481.192 189.416 486.488 193.337 491.924 197.946C502.798 207.164 514.167 219.075 524.503 230.878C534.836 242.676 544.119 254.344 550.82 263.065C554.17 267.425 556.873 271.046 558.739 273.577C559.671 274.843 560.395 275.835 560.884 276.511C561.042 276.729 561.176 276.914 561.284 277.065C561.204 277.232 561.104 277.438 560.987 277.68C560.622 278.43 560.082 279.533 559.383 280.941C557.985 283.756 555.952 287.79 553.409 292.66C548.324 302.403 541.207 315.489 533.077 328.867C524.944 342.251 515.812 355.903 506.699 366.791C502.142 372.234 497.606 376.969 493.215 380.63C488.816 384.298 484.615 386.844 480.733 387.978L480.73 387.979C463.51 393.064 429.406 396.057 399.49 397.772C384.556 398.628 370.706 399.164 360.588 399.486C355.529 399.647 351.404 399.754 348.544 399.822C347.114 399.855 346.001 399.879 345.245 399.894Z" fill="#1C1C20" stroke="white" stroke-width="2"/>
<path opacity="0.538462" d="M569.668 296.106C568.807 295.598 568.807 295.599 568.806 295.599L568.804 295.602L568.797 295.615L568.766 295.668L568.642 295.876C568.603 295.941 568.558 296.018 568.506 296.106M569.668 296.106C569.668 296.106 512.037 198.286 478.789 191.101M569.668 296.106C568.807 296.614 568.807 296.613 568.806 296.613L568.804 296.609L568.797 296.597L568.766 296.544L568.642 296.336C568.603 296.27 568.558 296.194 568.506 296.106M569.668 296.106C569.668 296.106 512.037 393.926 478.789 400.557L310.47 296.106M568.506 296.106C568.411 295.946 568.293 295.75 568.155 295.52C567.726 294.804 567.092 293.752 566.273 292.41C564.636 289.726 562.258 285.882 559.301 281.247C553.386 271.976 545.155 259.543 535.89 246.889C526.621 234.23 516.334 221.373 506.305 211.243C501.291 206.177 496.357 201.81 491.663 198.492C486.964 195.172 482.558 192.941 478.59 192.081M568.506 296.106C568.411 296.265 568.294 296.461 568.155 296.692C567.726 297.408 567.092 298.46 566.274 299.801C564.636 302.484 562.258 306.325 559.301 310.956C553.386 320.218 545.156 332.634 535.891 345.253C526.622 357.877 516.335 370.681 506.308 380.733C501.294 385.759 496.362 390.08 491.669 393.344C486.967 396.615 482.56 398.785 478.594 399.577L478.591 399.577C460.993 403.142 426.758 403.151 396.806 402.252C381.855 401.803 368.01 401.13 357.903 400.569C352.849 400.289 348.731 400.036 345.876 399.854C344.448 399.763 343.337 399.689 342.583 399.638C342.504 399.633 342.43 399.628 342.359 399.623C342.203 368.37 334.204 342.454 326.207 324.303C322.168 315.136 318.128 307.945 315.094 303.041C313.577 300.588 312.311 298.708 311.422 297.437C311.026 296.871 310.705 296.426 310.47 296.106M478.59 192.081C478.594 192.082 478.598 192.083 478.603 192.083L478.789 191.101M478.59 192.081C478.586 192.08 478.582 192.079 478.578 192.078L478.789 191.101M478.59 192.081C461.257 188.792 427.025 188.784 397.011 189.614C382.025 190.028 368.127 190.649 357.976 191.167C352.901 191.426 348.763 191.659 345.893 191.827C344.459 191.911 343.342 191.979 342.583 192.026C342.505 192.031 342.43 192.036 342.359 192.04M478.789 191.101C443.878 184.47 341.362 191.101 341.362 191.101M341.362 191.101H342.362C342.362 191.415 342.361 191.728 342.359 192.04M341.362 191.101C341.426 192.099 341.427 192.099 341.427 192.099L341.431 192.099L341.445 192.098L341.5 192.094L341.72 192.08C341.874 192.07 342.088 192.057 342.359 192.04M341.362 191.101L310.47 296.106M342.359 192.04C342.203 223.565 334.205 249.618 326.207 267.839C322.168 277.041 318.128 284.249 315.094 289.162C313.577 291.619 312.311 293.502 311.422 294.774C311.026 295.34 310.705 295.785 310.47 296.106" fill="#1C1C20" stroke="white" stroke-width="2"/>
<path opacity="0.564103" d="M573.455 315.352C573.573 315.594 573.673 315.799 573.753 315.966C573.645 316.117 573.511 316.302 573.353 316.52C572.864 317.195 572.14 318.188 571.208 319.453C569.342 321.983 566.639 325.602 563.29 329.957C556.59 338.669 547.309 350.32 536.979 362.084C526.646 373.852 515.282 385.71 504.416 394.85C498.984 399.42 493.694 403.295 488.734 406.138C483.765 408.986 479.186 410.764 475.165 411.207L475.162 411.207C457.321 413.225 423.216 410.25 393.456 406.744C378.601 404.994 364.868 403.116 354.848 401.677C349.838 400.957 345.757 400.346 342.929 399.916C341.515 399.701 340.414 399.531 339.667 399.414C339.589 399.402 339.515 399.391 339.446 399.38C342.013 368.231 336.304 341.717 329.919 322.938C326.695 313.454 323.296 305.938 320.701 300.788C319.404 298.213 318.307 296.229 317.532 294.886C317.187 294.288 316.906 293.817 316.7 293.477C316.962 293.178 317.321 292.762 317.764 292.233C318.761 291.043 320.186 289.277 321.911 286.962C325.362 282.333 330.015 275.504 334.841 266.689C344.396 249.234 354.634 223.978 357.538 192.586C357.609 192.588 357.683 192.59 357.762 192.592C358.521 192.612 359.64 192.641 361.077 192.682C363.95 192.765 368.093 192.894 373.171 193.078C383.329 193.447 397.227 194.039 412.193 194.933C442.165 196.722 476.266 199.713 493.246 204.501C497.124 205.703 501.319 208.309 505.711 212.027C510.098 215.741 514.632 220.522 519.186 226.005C528.293 236.971 537.421 250.675 545.552 264.094C553.679 277.507 560.794 290.61 565.879 300.362C568.421 305.237 570.454 309.273 571.852 312.089C572.551 313.498 573.091 314.601 573.455 315.352Z" fill="#1C1C20" stroke="white" stroke-width="2"/>
<path opacity="0.589744" d="M323.555 293.139C323.263 292.514 323.025 292.02 322.849 291.663C323.136 291.388 323.529 291.006 324.018 290.517C325.114 289.418 326.688 287.784 328.608 285.628C332.449 281.316 337.68 274.919 343.255 266.558C354.295 250.003 366.696 225.735 372.324 194.716C372.395 194.724 372.469 194.732 372.547 194.741C373.302 194.827 374.414 194.954 375.842 195.12C378.696 195.453 382.812 195.942 387.855 196.568C397.942 197.821 411.736 199.622 426.567 201.817C456.269 206.212 489.98 212.164 506.478 218.413C510.237 219.949 514.189 222.911 518.239 226.997C522.286 231.079 526.386 236.237 530.445 242.096C538.562 253.814 546.461 268.262 553.39 282.337C560.318 296.408 566.264 310.082 570.479 320.239C572.587 325.318 574.261 329.515 575.408 332.443C575.981 333.907 576.423 335.053 576.721 335.832C576.817 336.084 576.898 336.297 576.964 336.471C576.843 336.611 576.693 336.784 576.517 336.987C575.97 337.618 575.164 338.543 574.124 339.722C572.046 342.08 569.037 345.45 565.321 349.497C557.887 357.591 547.626 368.389 536.31 379.208C524.991 390.03 512.636 400.853 501.016 409.011C495.205 413.09 489.598 416.489 484.409 418.889C479.211 421.293 474.494 422.666 470.45 422.756L470.447 422.756C452.498 423.211 418.782 417.275 389.441 411.189C374.795 408.151 361.277 405.084 351.421 402.776C346.493 401.622 342.481 400.659 339.701 399.983C338.311 399.646 337.229 399.38 336.495 399.199C336.419 399.18 336.346 399.163 336.278 399.146C341.551 368.339 338.174 341.429 333.45 322.164C331.064 312.435 328.334 304.652 326.198 299.296C325.13 296.617 324.21 294.545 323.555 293.139Z" fill="#1C1C20" stroke="white" stroke-width="2"/>
<path opacity="0.615385" d="M577.902 356.782C577.976 357.041 578.038 357.261 578.089 357.439C578.081 357.447 578.072 357.456 578.064 357.464C577.935 357.589 577.78 357.739 577.599 357.915C576.999 358.495 576.115 359.347 574.977 360.431C572.7 362.598 569.41 365.693 565.355 369.401C557.244 376.817 546.081 386.679 533.865 396.47C521.645 406.265 508.395 415.97 496.107 423.085C489.964 426.642 484.081 429.539 478.703 431.477C473.315 433.42 468.497 434.376 464.46 434.113L464.457 434.113C446.537 433.002 413.466 424.15 384.767 415.529C370.442 411.226 357.243 406.993 347.625 403.835C342.817 402.256 338.904 400.946 336.193 400.031C334.838 399.574 333.783 399.215 333.068 398.971C332.994 398.946 332.923 398.921 332.856 398.899C340.794 368.669 339.775 341.566 336.748 321.964C335.22 312.064 333.178 304.072 331.517 298.55C330.686 295.789 329.95 293.644 329.421 292.187C329.185 291.538 328.99 291.025 328.846 290.655C329.156 290.406 329.581 290.059 330.11 289.614C331.298 288.616 333.008 287.124 335.11 285.144C339.312 281.184 345.08 275.267 351.363 267.424C363.804 251.894 378.272 228.799 386.583 198.388C386.652 198.403 386.725 198.417 386.803 198.433C387.547 198.584 388.644 198.808 390.051 199.098C392.866 199.678 396.924 200.524 401.893 201.587C411.833 203.714 425.417 206.711 440 210.19C469.206 217.157 502.27 226.024 518.161 233.687C521.771 235.545 525.45 238.84 529.129 243.264C532.805 247.683 536.44 253.179 539.972 259.369C547.037 271.75 553.647 286.831 559.323 301.457C564.998 316.078 569.73 330.218 573.044 340.705C574.7 345.947 576.002 350.275 576.89 353.291C577.333 354.799 577.673 355.98 577.902 356.782Z" fill="#1C1C20" stroke="white" stroke-width="2"/>
<path opacity="0.641026" d="M576.967 378.018C577.018 378.282 577.061 378.506 577.096 378.689C576.952 378.806 576.775 378.95 576.566 379.12C575.918 379.646 574.963 380.417 573.735 381.397C571.278 383.358 567.73 386.155 563.368 389.495C554.641 396.176 542.661 405.027 529.639 413.717C516.612 422.409 502.566 430.922 489.705 436.939C483.275 439.947 477.162 442.321 471.636 443.783C466.099 445.248 461.215 445.781 457.217 445.167L457.214 445.167C439.458 442.498 407.285 430.797 379.447 419.708C365.551 414.173 352.772 408.806 343.466 404.821C338.813 402.83 335.029 401.184 332.408 400.036C331.098 399.462 330.079 399.013 329.388 398.707C329.316 398.675 329.248 398.645 329.183 398.617C339.725 369.194 341.072 342.106 339.766 322.314C339.106 312.318 337.769 304.179 336.595 298.533C336.008 295.71 335.462 293.509 335.061 292.011C334.883 291.344 334.733 290.817 334.622 290.435C334.953 290.214 335.406 289.906 335.972 289.509C337.242 288.618 339.076 287.281 341.342 285.492C345.873 281.913 352.135 276.521 359.078 269.255C372.825 254.868 389.251 233.123 400.181 203.552C400.249 203.572 400.32 203.593 400.396 203.616C401.124 203.831 402.197 204.149 403.574 204.561C406.328 205.384 410.296 206.58 415.154 208.073C424.87 211.058 438.142 215.228 452.366 219.964C480.854 229.45 513.019 241.165 528.182 250.184C531.616 252.35 534.994 255.953 538.273 260.68C541.55 265.403 544.692 271.195 547.671 277.669C553.63 290.619 558.9 306.219 563.281 321.284C567.659 336.344 571.141 350.842 573.528 361.578C574.722 366.945 575.642 371.37 576.263 374.452C576.573 375.993 576.809 377.198 576.967 378.018Z" fill="#1C1C20" stroke="white" stroke-width="2"/>
<path opacity="0.666667" d="M573.898 399.353C573.926 399.621 573.949 399.848 573.968 400.033C573.815 400.137 573.626 400.265 573.403 400.416C572.712 400.883 571.693 401.569 570.384 402.438C567.766 404.177 563.988 406.654 559.35 409.601C550.075 415.496 537.369 423.27 523.639 430.791C509.904 438.315 495.169 445.572 481.833 450.445C475.165 452.881 468.869 454.713 463.236 455.688C457.593 456.665 452.681 456.77 448.752 455.81L448.749 455.81C431.293 451.604 400.262 437.143 373.496 423.67C360.136 416.945 347.873 410.484 338.949 405.704C334.488 403.314 330.862 401.345 328.351 399.973C327.096 399.287 326.12 398.751 325.458 398.386C325.389 398.348 325.324 398.312 325.262 398.278C338.328 369.886 342.031 343.018 342.454 323.187C342.668 313.173 342.046 304.948 341.368 299.221C341.03 296.357 340.677 294.118 340.409 292.591C340.289 291.911 340.186 291.372 340.109 290.982C340.457 290.791 340.936 290.523 341.535 290.177C342.878 289.4 344.821 288.228 347.234 286.643C352.06 283.473 358.768 278.647 366.318 272.014C381.266 258.88 399.526 238.649 412.99 210.143C413.056 210.169 413.126 210.197 413.199 210.225C413.906 210.503 414.947 210.914 416.283 211.444C418.955 212.504 422.804 214.042 427.513 215.952C436.932 219.773 449.79 225.083 463.547 231.041C491.099 242.974 522.121 257.448 536.44 267.754C539.673 270.211 542.723 274.094 545.578 279.09C548.431 284.08 551.056 290.123 553.46 296.833C558.268 310.253 562.158 326.253 565.209 341.643C568.258 357.027 570.463 371.773 571.906 382.676C572.627 388.126 573.157 392.615 573.507 395.739C573.682 397.302 573.812 398.523 573.898 399.353Z" fill="#1C1C20" stroke="white" stroke-width="2"/>
<path opacity="0.692308" d="M568.696 420.602C568.7 420.871 568.703 421.1 568.706 421.285C568.544 421.376 568.345 421.487 568.109 421.618C567.38 422.023 566.305 422.617 564.925 423.369C562.166 424.874 558.186 427.012 553.31 429.543C543.556 434.607 530.221 441.244 515.887 447.54C501.549 453.839 486.238 459.784 472.528 463.475C465.673 465.321 459.241 466.597 453.544 467.078C447.837 467.559 442.936 467.236 439.105 465.937L439.102 465.936C422.079 460.225 392.427 443.115 366.937 427.361C354.213 419.497 342.56 411.991 334.087 406.452C329.851 403.682 326.41 401.404 324.029 399.819C322.838 399.026 321.913 398.407 321.285 397.986C321.22 397.942 321.158 397.9 321.099 397.861C336.59 370.716 342.621 344.273 344.771 324.555C345.856 314.597 345.953 306.349 345.778 300.585C345.69 297.703 345.534 295.441 345.399 293.896C345.34 293.208 345.284 292.663 345.241 292.267C345.605 292.107 346.105 291.882 346.731 291.59C348.137 290.933 350.175 289.935 352.717 288.566C357.801 285.828 364.904 281.606 373.003 275.656C389.04 263.875 408.993 245.312 424.891 218.089C424.954 218.12 425.021 218.153 425.091 218.188C425.772 218.527 426.773 219.027 428.058 219.671C430.626 220.96 434.327 222.827 438.852 225.141C447.902 229.768 460.248 236.179 473.434 243.313C499.841 257.602 529.483 274.724 542.849 286.239C545.856 288.968 548.556 293.103 550.965 298.328C553.372 303.548 555.461 309.797 557.27 316.691C560.89 330.479 563.371 346.757 565.069 362.354C566.766 377.945 567.677 392.828 568.164 403.815C568.407 409.308 568.545 413.825 568.621 416.968C568.659 418.54 568.682 419.768 568.696 420.602Z" fill="#1C1C20" stroke="white" stroke-width="2"/>
<path opacity="0.717949" d="M562.278 442.928C561.863 442.018 561.863 442.018 561.862 442.018L561.859 442.02L561.845 442.026L561.79 442.051L561.569 442.151C561.5 442.182 561.418 442.219 561.325 442.261M562.278 442.928C562.278 442.928 571.176 329.742 548.062 304.787M562.278 442.928C561.685 442.881 561.445 442.862 561.347 442.854C561.281 442.849 561.281 442.849 561.281 442.848L561.281 442.845L561.282 442.83L561.287 442.769L561.305 442.527C561.311 442.452 561.318 442.363 561.325 442.261M562.278 442.928C562.278 442.928 458.962 490.001 427.923 476.363L316.702 397.345M561.325 442.261C561.339 442.076 561.355 441.848 561.374 441.579C561.434 440.747 561.518 439.522 561.617 437.953C561.815 434.815 562.072 430.303 562.308 424.81C562.78 413.822 563.17 398.917 562.838 383.237C562.506 367.551 561.453 351.119 559.049 337.068C557.847 330.043 556.311 323.636 554.368 318.225C552.424 312.81 550.094 308.456 547.337 305.475M561.325 442.261C561.156 442.337 560.948 442.43 560.702 442.54C559.94 442.88 558.817 443.378 557.377 444.007C554.497 445.266 550.346 447.049 545.268 449.146C535.11 453.34 521.247 458.79 506.419 463.813C491.586 468.837 475.815 473.425 461.836 475.908C454.846 477.149 448.327 477.86 442.611 477.842C436.883 477.824 432.028 477.075 428.325 475.448L428.322 475.446C411.862 468.273 383.814 448.644 359.794 430.728C347.805 421.785 336.85 413.292 328.892 407.035C324.913 403.907 321.684 401.338 319.45 399.551C318.333 398.658 317.465 397.96 316.876 397.486C316.815 397.436 316.757 397.39 316.702 397.345M547.337 305.475C547.34 305.478 547.343 305.481 547.346 305.484L548.062 304.787M547.337 305.475C547.334 305.472 547.331 305.469 547.328 305.466L548.062 304.787M547.337 305.475C535.025 292.839 506.988 273.198 481.927 256.663C469.413 248.406 457.672 240.944 449.06 235.545C444.754 232.846 441.23 230.664 438.784 229.156C437.56 228.402 436.606 227.817 435.958 227.42C435.891 227.379 435.827 227.34 435.767 227.303M548.062 304.787C523.268 279.33 435.488 225.961 435.488 225.961M435.488 225.961L436.307 226.535C436.127 226.792 435.947 227.048 435.767 227.303M435.488 225.961C434.969 226.816 434.969 226.816 434.97 226.816L434.972 226.818L434.984 226.825L435.032 226.854L435.22 226.969C435.352 227.05 435.535 227.161 435.767 227.303M435.488 225.961L349.955 294.258M435.767 227.303C417.557 253.037 396.062 269.79 379.059 280.129C370.473 285.35 363.029 288.938 357.726 291.222C355.074 292.364 352.957 293.18 351.499 293.712C350.85 293.949 350.331 294.13 349.955 294.258M349.955 294.258C349.954 294.209 349.953 294.162 349.952 294.118C349.946 293.915 349.941 293.761 349.937 293.656C349.936 293.604 349.934 293.564 349.933 293.537L349.931 293.505L349.931 293.497L349.931 293.494C349.931 293.493 349.931 293.493 348.932 293.542C349.228 294.497 349.228 294.497 349.229 294.496L349.231 294.496L349.24 294.493L349.27 294.484C349.279 294.481 349.29 294.477 349.302 294.473C349.325 294.466 349.352 294.457 349.384 294.447C349.484 294.415 349.63 294.367 349.822 294.302C349.864 294.288 349.908 294.273 349.955 294.258ZM349.955 294.258C349.964 294.655 349.971 295.204 349.971 295.894C349.97 297.445 349.928 299.711 349.765 302.59C349.437 308.348 348.622 316.556 346.673 326.381C342.812 345.837 334.5 371.654 316.702 397.345M349.955 294.258L315.349 397.538C315.979 396.761 315.979 396.761 315.98 396.762L315.982 396.764L315.993 396.773L316.036 396.807L316.206 396.945C316.326 397.042 316.492 397.176 316.702 397.345" fill="#1C1C20" stroke="white" stroke-width="2"/>
<path opacity="0.74359" d="M354.065 298.545C354.125 297.857 354.165 297.31 354.191 296.913C354.578 296.819 355.11 296.684 355.777 296.505C357.276 296.102 359.456 295.473 362.197 294.566C367.679 292.753 375.408 289.828 384.416 285.375C402.255 276.558 425.128 261.742 445.512 237.692C445.569 237.735 445.629 237.779 445.693 237.826C446.304 238.277 447.203 238.943 448.356 239.801C450.662 241.516 453.982 243.998 458.036 247.062C466.146 253.19 477.191 261.648 488.937 270.963C512.463 289.621 538.681 311.63 549.845 325.291C552.332 328.501 554.273 333.042 555.738 338.606C557.201 344.165 558.173 350.681 558.759 357.785C559.929 371.992 559.546 388.453 558.509 404.108C557.473 419.757 555.786 434.572 554.358 445.476C553.644 450.928 552.995 455.4 552.524 458.509C552.289 460.064 552.098 461.277 551.966 462.101C551.924 462.367 551.888 462.592 551.858 462.775C551.683 462.837 551.467 462.911 551.213 462.999C550.424 463.272 549.262 463.67 547.773 464.171C544.794 465.174 540.504 466.588 535.262 468.235C524.777 471.528 510.491 475.749 495.283 479.46C480.068 483.173 463.958 486.369 449.815 487.623C442.743 488.251 436.187 488.391 430.494 487.875C424.79 487.358 420.019 486.188 416.472 484.244L416.469 484.243C400.697 475.662 374.466 453.663 352.099 433.722C340.935 423.768 330.761 414.353 323.379 407.426C319.688 403.963 316.696 401.122 314.626 399.148C313.591 398.16 312.787 397.389 312.242 396.866C312.185 396.811 312.131 396.76 312.08 396.711C332.05 372.668 342.58 347.674 348.122 328.629C350.92 319.01 352.448 310.905 353.276 305.198C353.69 302.344 353.929 300.09 354.065 298.545Z" fill="#1C1C20" stroke="white" stroke-width="2"/>
<path opacity="0.769231" d="M357.626 301.805C357.746 301.125 357.834 300.584 357.894 300.191C358.287 300.13 358.829 300.042 359.509 299.922C361.037 299.651 363.264 299.215 366.074 298.55C371.693 297.222 379.647 294.981 389.01 291.331C407.549 284.102 431.626 271.335 454.029 249.154C454.082 249.201 454.138 249.251 454.197 249.303C454.766 249.806 455.604 250.548 456.678 251.503C458.826 253.412 461.917 256.174 465.689 259.58C473.233 266.392 483.499 275.779 494.389 286.083C516.198 306.72 540.399 330.93 550.329 345.512C552.527 348.926 554.065 353.62 555.04 359.29C556.013 364.956 556.414 371.532 556.378 378.659C556.305 392.914 554.489 409.28 552.092 424.785C549.696 440.284 546.724 454.896 544.351 465.634C543.164 471.003 542.128 475.401 541.388 478.457C541.018 479.985 540.722 481.177 540.519 481.987C540.454 482.248 540.398 482.469 540.353 482.649C540.322 482.657 540.289 482.665 540.256 482.674C540.095 482.714 539.906 482.762 539.69 482.816C538.881 483.019 537.689 483.314 536.161 483.684C533.106 484.423 528.709 485.458 523.344 486.641C512.612 489.008 498.013 491.968 482.538 494.339C467.058 496.712 450.73 498.492 436.532 498.509C429.433 498.518 422.889 498.086 417.263 497.075C411.626 496.063 406.975 494.482 403.61 492.237L403.608 492.235C388.644 482.312 364.43 458.111 343.886 436.296C333.631 425.407 324.318 415.141 317.567 407.597C314.192 403.826 311.458 400.735 309.569 398.587C308.624 397.514 307.89 396.676 307.392 396.106C307.341 396.047 307.292 395.991 307.245 395.938C329.234 373.727 341.903 349.746 349.083 331.256C352.71 321.918 354.937 313.977 356.26 308.364C356.921 305.557 357.356 303.332 357.626 301.805Z" fill="#1C1C20" stroke="white" stroke-width="2"/>
<path opacity="0.794872" d="M360.603 305.625C360.782 304.958 360.916 304.427 361.011 304.04C361.407 304.014 361.955 303.974 362.643 303.913C364.189 303.777 366.445 303.536 369.302 303.119C375.016 302.286 383.135 300.747 392.78 297.926C411.879 292.34 436.977 281.721 461.228 261.577C461.276 261.628 461.328 261.682 461.382 261.739C461.906 262.29 462.676 263.102 463.662 264.147C465.635 266.237 468.474 269.257 471.935 272.979C478.856 280.422 488.265 290.669 498.216 301.883C518.144 324.342 540.142 350.57 548.764 365.962C550.655 369.555 551.779 374.364 552.255 380.097C552.731 385.826 552.557 392.413 551.9 399.51C550.586 413.704 547.35 429.849 543.61 445.086C539.872 460.317 535.639 474.614 532.338 485.105C530.689 490.35 529.273 494.642 528.269 497.621C527.768 499.111 527.369 500.273 527.097 501.062C527.009 501.316 526.934 501.532 526.872 501.707C526.689 501.737 526.464 501.773 526.198 501.816C525.374 501.947 524.161 502.138 522.607 502.373C519.499 502.842 515.029 503.49 509.581 504.201C498.683 505.624 483.882 507.3 468.259 508.314C452.631 509.328 436.211 509.678 422.065 508.458C414.992 507.848 408.511 506.847 402.994 505.35C397.467 503.851 392.971 501.87 389.815 499.34L389.813 499.338C375.77 488.149 353.758 461.93 335.194 438.407C325.927 426.666 317.544 415.627 311.476 407.524C308.443 403.472 305.989 400.155 304.293 397.851C303.446 396.699 302.788 395.8 302.342 395.19C302.295 395.126 302.251 395.066 302.21 395.009C326.051 374.799 340.762 352.014 349.526 334.22C353.952 325.234 356.864 317.516 358.67 312.04C359.574 309.302 360.201 307.123 360.603 305.625Z" fill="#1C1C20" stroke="white" stroke-width="2"/>
<path opacity="0.820513" d="M362.949 309.953C363.186 309.304 363.366 308.786 363.493 308.41C363.891 308.418 364.44 308.426 365.131 308.425C366.683 308.424 368.951 308.381 371.834 308.215C377.599 307.882 385.821 307.057 395.675 305.088C415.188 301.188 441.117 292.796 467.03 274.842C467.074 274.898 467.121 274.956 467.17 275.018C467.643 275.612 468.34 276.488 469.232 277.615C471.015 279.869 473.58 283.125 476.703 287.134C482.949 295.152 491.429 306.18 500.365 318.219C518.259 342.329 537.888 370.374 545.135 386.459C546.707 390.203 547.407 395.092 547.382 400.845C547.357 406.594 546.609 413.14 545.336 420.153C542.789 434.178 538.159 449.98 533.106 464.833C528.054 479.681 522.591 493.554 518.389 503.717C516.288 508.798 514.503 512.951 513.244 515.832C512.615 517.272 512.116 518.395 511.776 519.157C511.704 519.317 511.64 519.461 511.582 519.59C511.551 519.658 511.523 519.721 511.497 519.78C511.311 519.794 511.084 519.81 510.815 519.829C509.983 519.889 508.758 519.973 507.189 520.071C504.053 520.268 499.542 520.524 494.053 520.758C483.073 521.225 468.182 521.605 452.531 521.253C436.874 520.901 420.485 519.819 406.499 517.37C399.506 516.146 393.138 514.585 387.772 512.613C382.396 510.637 378.09 508.272 375.167 505.477L375.165 505.475C362.151 493.104 342.508 465.066 326.064 440.015C317.856 427.51 310.466 415.783 305.129 407.182C302.46 402.882 300.304 399.363 298.816 396.92C298.072 395.698 297.495 394.746 297.104 394.099C297.063 394.031 297.024 393.968 296.988 393.907C322.5 375.852 339.14 354.436 349.422 337.473C354.615 328.907 358.188 321.473 360.465 316.175C361.603 313.526 362.418 311.41 362.949 309.953Z" fill="#1C1C20" stroke="white" stroke-width="2"/>
<path opacity="0.846154" d="M471.683 287.491C416.642 319.269 364.675 312.159 364.675 312.159C364.675 312.159 344.85 360.718 290.288 392.219L471.683 287.491ZM471.683 287.491L472.183 288.357C471.911 288.514 471.64 288.67 471.368 288.825M471.683 287.491C471.683 287.491 528.683 372.957 540.396 406.507M471.683 287.491C470.851 288.046 470.851 288.046 470.851 288.047L470.853 288.05L470.861 288.061L470.892 288.108L471.014 288.291C471.099 288.42 471.218 288.598 471.368 288.825M471.683 287.491L471.368 288.825M365.3 313.241C365.14 313.605 364.915 314.105 364.623 314.73C363.967 316.136 362.971 318.172 361.606 320.712C358.876 325.792 354.669 332.886 348.749 340.967C337.028 356.969 318.584 376.854 291.596 392.616C291.627 392.68 291.66 392.747 291.694 392.817C292.028 393.496 292.52 394.495 293.154 395.777C294.424 398.341 296.265 402.034 298.548 406.55C303.116 415.584 309.456 427.911 316.543 441.083C330.74 467.472 347.865 497.115 359.751 510.573L359.753 510.575C362.422 513.615 366.505 516.346 371.689 518.783C376.862 521.215 383.07 523.326 389.93 525.154C403.649 528.813 419.881 531.319 435.448 533.034C451.009 534.749 465.876 535.668 476.855 536.16C482.344 536.405 486.859 536.544 490.002 536.621C491.573 536.659 492.8 536.682 493.635 536.696C493.897 536.7 494.12 536.703 494.303 536.706C494.308 536.706 494.313 536.706 494.318 536.706C494.408 536.544 494.519 536.345 494.65 536.109C495.056 535.38 495.65 534.305 496.403 532.925C497.908 530.165 500.048 526.184 502.583 521.305C507.655 511.547 514.307 498.203 520.633 483.851C526.962 469.495 532.952 454.158 536.711 440.407C538.591 433.532 539.906 427.076 540.432 421.352C540.958 415.622 540.687 410.691 539.448 406.825M365.3 313.241L359.002 511.235C381.369 536.713 494.899 537.713 494.899 537.713C494.899 537.713 550.798 438.893 540.396 406.507M365.3 313.241C365.695 313.284 366.241 313.339 366.93 313.399C368.476 313.533 370.739 313.688 373.626 313.773C379.397 313.945 387.66 313.839 397.648 312.736C417.427 310.551 443.988 304.452 471.368 288.825M365.3 313.241L471.368 288.825M539.448 406.825C539.449 406.828 539.451 406.832 539.452 406.836L540.396 406.507M539.448 406.825C539.447 406.821 539.445 406.817 539.444 406.813L540.396 406.507M539.448 406.825C533.63 390.169 516.52 360.52 500.795 334.942C492.943 322.17 485.457 310.445 479.933 301.913C477.171 297.647 474.9 294.18 473.319 291.779C472.529 290.579 471.912 289.645 471.492 289.012C471.449 288.946 471.407 288.884 471.368 288.825" fill="#1C1C20" stroke="white" stroke-width="2"/>
<path opacity="0.871795" d="M365.588 319.899C365.933 319.301 366.201 318.822 366.392 318.473C366.782 318.551 367.321 318.654 368.002 318.773C369.53 319.041 371.772 319.393 374.64 319.73C380.374 320.403 388.615 321.018 398.661 320.79C418.555 320.338 445.547 316.576 474.185 303.395C474.219 303.457 474.254 303.523 474.292 303.592C474.655 304.259 475.189 305.243 475.871 306.508C477.236 309.037 479.196 312.689 481.576 317.18C486.335 326.161 492.771 338.494 499.48 351.901C512.917 378.752 527.377 409.78 531.721 426.879C532.619 430.839 532.459 435.775 531.435 441.437C530.412 447.093 528.539 453.41 526.068 460.095C521.124 473.466 513.82 488.223 506.265 501.973C498.712 515.718 490.922 528.432 485.019 537.711C482.068 542.35 479.589 546.129 477.849 548.748C476.979 550.057 476.294 551.076 475.826 551.768C475.675 551.991 475.547 552.179 475.442 552.333C475.258 552.314 475.031 552.291 474.763 552.263C473.933 552.177 472.712 552.047 471.15 551.872C468.027 551.521 463.541 550.99 458.094 550.267C447.2 548.821 432.469 546.608 417.117 543.544C401.759 540.479 385.807 536.567 372.459 531.727C365.785 529.308 359.784 526.664 354.842 523.79C349.891 520.911 346.061 517.834 343.668 514.574L343.666 514.571C332.998 500.129 318.522 469.105 306.678 441.58C300.766 427.84 295.525 415.008 291.762 405.61C289.881 400.912 288.369 397.072 287.327 394.408C286.807 393.076 286.404 392.037 286.131 391.332C286.103 391.259 286.076 391.189 286.05 391.123C314.31 377.773 334.417 359.571 347.488 344.652C354.089 337.118 358.899 330.417 362.061 325.595C363.642 323.183 364.812 321.241 365.588 319.899Z" fill="#1C1C20" stroke="white" stroke-width="2"/>
<path opacity="0.897436" d="M455.073 566.417C455.044 566.452 455.017 566.486 454.991 566.518C454.809 566.483 454.585 566.44 454.32 566.389C453.501 566.231 452.296 565.995 450.755 565.684C447.674 565.063 443.252 564.142 437.889 562.947C427.162 560.557 412.68 557.069 397.653 552.679C382.621 548.287 367.07 543 354.195 537.015C347.757 534.023 342.01 530.866 337.337 527.572C332.656 524.273 329.109 520.874 327.009 517.417L327.007 517.414C317.638 502.097 305.921 469.93 296.522 441.477C291.83 427.274 287.727 414.034 284.797 404.344C283.333 399.5 282.161 395.543 281.356 392.798C280.953 391.426 280.642 390.356 280.432 389.63C280.41 389.554 280.389 389.483 280.37 389.415C309.685 378.578 331.302 362.198 345.624 348.475C352.856 341.545 358.232 335.289 361.803 330.76C363.588 328.496 364.922 326.663 365.813 325.393C366.209 324.828 366.517 324.374 366.738 324.044C367.12 324.155 367.648 324.304 368.315 324.483C369.814 324.883 372.017 325.428 374.844 326.014C380.499 327.185 388.654 328.516 398.682 329.164C418.54 330.447 445.757 329.053 475.434 318.417C475.463 318.482 475.493 318.551 475.524 318.623C475.827 319.319 476.273 320.346 476.843 321.665C477.982 324.304 479.617 328.113 481.596 332.794C485.554 342.156 490.891 355.002 496.406 368.943C507.451 396.863 519.152 429.034 521.99 446.446C522.538 450.469 521.949 455.372 520.436 460.923C518.924 466.469 516.507 472.599 513.463 479.043C507.373 491.932 498.81 505.996 490.085 519.036C481.363 532.07 472.495 544.057 465.806 552.786C462.461 557.15 459.663 560.699 457.701 563.156C456.72 564.384 455.948 565.34 455.422 565.988C455.29 566.151 455.173 566.294 455.073 566.417Z" fill="#1C1C20" stroke="white" stroke-width="2"/>
<path opacity="0.923077" d="M433.57 578.638C433.383 578.832 433.224 578.995 433.095 579.128C432.916 579.078 432.697 579.016 432.438 578.942C431.635 578.713 430.455 578.373 428.948 577.929C425.933 577.041 421.607 575.739 416.369 574.081C405.891 570.765 391.768 566.029 377.181 560.345C362.589 554.66 347.559 548.037 335.254 540.953C329.101 537.411 323.651 533.765 319.283 530.077C314.907 526.382 311.67 522.687 309.879 519.06L309.877 519.058C301.879 502.982 293.01 469.916 286.127 440.752C282.69 426.194 279.757 412.647 277.683 402.739C276.646 397.785 275.824 393.741 275.261 390.937C274.98 389.534 274.763 388.442 274.617 387.7C274.602 387.623 274.587 387.55 274.574 387.48C304.722 379.24 327.684 364.806 343.147 352.384C350.957 346.11 356.857 340.346 360.809 336.146C362.784 334.046 364.274 332.337 365.271 331.149C365.715 330.621 366.062 330.195 366.31 329.885C366.681 330.029 367.194 330.224 367.844 330.46C369.302 330.99 371.449 331.725 374.214 332.555C379.745 334.214 387.754 336.251 397.687 337.77C417.357 340.779 444.592 341.762 475.084 333.754C475.106 333.821 475.13 333.892 475.155 333.966C475.397 334.687 475.751 335.748 476.204 337.112C477.109 339.84 478.405 343.777 479.969 348.613C483.096 358.284 487.293 371.547 491.572 385.916C500.142 414.692 508.994 447.76 510.303 465.353C510.499 469.409 509.485 474.242 507.494 479.64C505.504 485.033 502.563 490.929 498.968 497.083C491.778 509.392 482.022 522.657 472.194 534.886C462.369 547.111 452.489 558.279 445.065 566.392C441.353 570.448 438.256 573.739 436.087 576.016C435.003 577.154 434.151 578.039 433.57 578.638Z" fill="#1C1C20" stroke="white" stroke-width="2"/>
<path opacity="0.948718" d="M363.944 337.098C364.432 336.61 364.814 336.217 365.089 335.929C365.446 336.105 365.94 336.344 366.566 336.636C367.973 337.29 370.048 338.21 372.73 339.277C378.096 341.412 385.896 344.139 395.659 346.519C414.993 351.231 442.038 354.584 473.111 349.263C473.128 349.332 473.146 349.405 473.164 349.481C473.342 350.22 473.603 351.309 473.935 352.707C474.599 355.503 475.547 359.538 476.683 364.491C478.956 374.398 481.981 387.977 484.991 402.664C491.02 432.077 496.957 465.791 496.727 483.431C496.569 487.489 495.138 492.215 492.683 497.419C490.231 502.618 486.787 508.235 482.669 514.053C474.434 525.688 463.559 538.052 452.702 549.378C441.85 560.7 431.035 570.965 422.931 578.4C418.88 582.117 415.508 585.126 413.149 587.205C411.97 588.244 411.044 589.051 410.413 589.598C410.21 589.774 410.037 589.923 409.896 590.045C409.723 589.979 409.51 589.898 409.258 589.802C408.479 589.503 407.333 589.062 405.87 588.488C402.943 587.341 398.748 585.667 393.674 583.559C383.525 579.342 369.869 573.393 355.833 566.46C341.791 559.524 327.395 551.617 315.755 543.487C309.935 539.422 304.822 535.315 300.793 531.261C296.756 527.198 293.853 523.235 292.385 519.466L292.384 519.463C285.817 502.752 279.864 469.039 275.548 439.386C273.393 424.584 271.652 410.833 270.449 400.781C269.848 395.756 269.382 391.656 269.065 388.813C268.907 387.391 268.787 386.284 268.706 385.532C268.697 385.454 268.689 385.38 268.682 385.31C299.434 379.728 323.566 367.351 340.053 356.323C348.38 350.754 354.76 345.527 359.063 341.687C361.214 339.767 362.847 338.194 363.944 337.098Z" fill="#1C1C20" stroke="white" stroke-width="2"/>
<path opacity="0.974359" d="M361.816 343.171C362.345 342.727 362.761 342.369 363.059 342.107C363.399 342.313 363.871 342.594 364.47 342.939C365.814 343.714 367.8 344.811 370.38 346.108C375.539 348.702 383.072 352.099 392.59 355.32C411.439 361.699 438.09 367.397 469.509 364.805C469.519 364.875 469.53 364.949 469.542 365.027C469.655 365.778 469.82 366.885 470.029 368.307C470.446 371.15 471.039 375.253 471.739 380.286C473.14 390.353 474.97 404.144 476.689 419.037C480.131 448.865 483.107 482.967 481.341 500.521C480.83 504.549 478.992 509.132 476.093 514.102C473.198 519.068 469.277 524.364 464.668 529.8C455.45 540.674 443.539 552.043 431.736 562.379C419.938 572.712 408.269 581.995 399.549 588.696C395.189 592.046 391.567 594.749 389.036 596.615C387.771 597.547 386.778 598.27 386.102 598.76C385.884 598.918 385.699 599.052 385.549 599.16C385.382 599.08 385.176 598.98 384.934 598.862C384.184 598.498 383.081 597.958 381.673 597.259C378.858 595.861 374.824 593.827 369.953 591.285C360.21 586.2 347.125 579.083 333.746 570.953C320.363 562.82 306.711 553.688 295.823 544.575C290.379 540.018 285.644 535.481 281.984 531.091C278.316 526.692 275.769 522.491 274.635 518.608L274.635 518.606C269.549 501.386 266.557 467.282 264.842 437.365C263.986 422.432 263.45 408.581 263.128 398.464C262.967 393.405 262.859 389.28 262.792 386.42C262.758 384.99 262.735 383.876 262.72 383.121C262.718 383.042 262.717 382.967 262.715 382.897C293.836 380.017 318.956 369.79 336.342 360.241C345.122 355.419 351.933 350.767 356.554 347.317C358.865 345.592 360.628 344.167 361.816 343.171Z" fill="#1C1C20" stroke="white" stroke-width="2"/>
<path d="M358.882 349.298C359.447 348.902 359.892 348.581 360.213 348.346C360.534 348.581 360.979 348.902 361.545 349.298C362.817 350.187 364.7 351.453 367.157 352.97C372.07 356.004 379.278 360.044 388.48 364.083C406.701 372.081 432.753 380.079 464.279 380.235C464.283 380.306 464.288 380.381 464.292 380.459C464.339 381.217 464.407 382.335 464.491 383.769C464.66 386.638 464.893 390.777 465.152 395.852C465.669 406.003 466.291 419.901 466.705 434.887C467.534 464.901 467.527 499.133 464.238 516.466C463.377 520.434 461.147 524.84 457.826 529.539C454.509 534.233 450.141 539.167 445.076 544.181C434.945 554.209 422.089 564.497 409.43 573.766C396.776 583.031 384.343 591.262 375.072 597.177C370.436 600.134 366.593 602.511 363.909 604.149C362.567 604.968 361.515 605.602 360.799 606.031C360.568 606.169 360.372 606.286 360.213 606.381C360.053 606.286 359.857 606.169 359.626 606.031C358.911 605.602 357.859 604.968 356.518 604.149C353.835 602.512 349.994 600.134 345.363 597.177C336.1 591.262 323.685 583.032 311.066 573.767C298.442 564.498 285.638 554.211 275.586 544.183C270.56 539.17 266.239 534.238 262.975 529.545C259.704 524.843 257.533 520.436 256.742 516.469L256.741 516.466C253.177 498.869 253.168 464.634 254.067 434.682C254.515 419.731 255.189 405.886 255.75 395.779C256.03 390.725 256.282 386.607 256.465 383.752C256.556 382.324 256.629 381.213 256.68 380.458C256.685 380.38 256.691 380.306 256.695 380.235C287.949 380.078 313.865 372.08 332.016 364.082C341.183 360.044 348.374 356.004 353.278 352.969C355.73 351.452 357.611 350.186 358.882 349.298Z" fill="#1C1C20" stroke="white" stroke-width="2"/>
<path d="M318.395 476.463V465.103H296.795V455.503L314.075 425.743H331.195V454.703H336.635V465.103H331.195V476.463H318.395ZM309.755 454.703H318.395V448.943C318.395 448.09 318.395 447.157 318.395 446.143C318.449 445.077 318.502 444.01 318.555 442.943C318.609 441.877 318.662 440.837 318.715 439.823C318.769 438.757 318.822 437.797 318.875 436.943H318.555C317.915 438.49 317.249 440.01 316.555 441.503C315.862 442.997 315.142 444.517 314.395 446.063L309.755 454.703Z" stroke="white"/>
<path d="M359.998 477.423C357.172 477.423 354.612 476.863 352.318 475.743C350.025 474.57 348.025 472.863 346.318 470.623C344.665 468.383 343.385 465.61 342.478 462.303C341.572 458.997 341.118 455.183 341.118 450.863C341.118 446.543 341.572 442.757 342.478 439.503C343.385 436.197 344.665 433.477 346.318 431.343C348.025 429.157 350.025 427.53 352.318 426.463C354.612 425.343 357.172 424.783 359.998 424.783C362.772 424.783 365.305 425.343 367.598 426.463C369.945 427.53 371.945 429.157 373.598 431.343C375.305 433.53 376.612 436.25 377.518 439.503C378.425 442.757 378.878 446.543 378.878 450.863C378.878 455.183 378.425 458.997 377.518 462.303C376.612 465.61 375.305 468.383 373.598 470.623C371.945 472.863 369.945 474.57 367.598 475.743C365.305 476.863 362.772 477.423 359.998 477.423ZM359.998 466.863C360.798 466.863 361.545 466.677 362.238 466.303C362.985 465.877 363.625 465.077 364.158 463.903C364.692 462.73 365.118 461.103 365.438 459.023C365.758 456.943 365.918 454.223 365.918 450.863C365.918 447.503 365.758 444.81 365.438 442.783C365.118 440.757 364.692 439.183 364.158 438.063C363.625 436.943 362.985 436.223 362.238 435.903C361.545 435.53 360.798 435.343 359.998 435.343C359.198 435.343 358.425 435.53 357.678 435.903C356.985 436.223 356.372 436.943 355.838 438.063C355.305 439.183 354.878 440.757 354.558 442.783C354.238 444.81 354.078 447.503 354.078 450.863C354.078 454.223 354.238 456.943 354.558 459.023C354.878 461.103 355.305 462.73 355.838 463.903C356.372 465.077 356.985 465.877 357.678 466.303C358.425 466.677 359.198 466.863 359.998 466.863Z" stroke="white"/>
<path d="M401.282 477.423C397.122 477.423 393.548 476.783 390.562 475.503C387.575 474.223 385.122 472.463 383.202 470.223L389.442 461.583C390.988 463.023 392.642 464.197 394.402 465.103C396.215 465.957 398.028 466.383 399.842 466.383C402.082 466.383 403.868 465.983 405.202 465.183C406.535 464.383 407.202 463.183 407.202 461.583C407.202 460.623 407.042 459.77 406.722 459.023C406.402 458.277 405.788 457.637 404.882 457.103C403.975 456.57 402.695 456.17 401.042 455.903C399.388 455.637 397.228 455.503 394.562 455.503V445.903C396.695 445.903 398.455 445.77 399.842 445.503C401.282 445.237 402.428 444.863 403.282 444.383C404.135 443.85 404.722 443.237 405.042 442.543C405.415 441.85 405.602 441.05 405.602 440.143C405.602 437.05 403.842 435.503 400.322 435.503C398.615 435.503 397.095 435.85 395.762 436.543C394.428 437.237 392.962 438.277 391.362 439.663L384.482 431.343C386.988 429.263 389.575 427.663 392.242 426.543C394.908 425.37 397.815 424.783 400.962 424.783C406.562 424.783 411.015 426.037 414.322 428.543C417.682 430.997 419.362 434.517 419.362 439.103C419.362 444.01 416.642 447.663 411.202 450.063V450.383C414.082 451.29 416.428 452.757 418.242 454.783C420.055 456.757 420.962 459.343 420.962 462.543C420.962 464.943 420.428 467.077 419.362 468.943C418.295 470.757 416.855 472.303 415.042 473.583C413.282 474.863 411.202 475.823 408.802 476.463C406.402 477.103 403.895 477.423 401.282 477.423Z" stroke="white"/>
<path d="M300.126 522.463V496.463H316.926V502.223H307.006V506.303H315.486V512.063H307.006V516.703H317.326V522.463H300.126Z" stroke="white"/>
<path d="M322.353 522.463V496.463H332.193C333.579 496.463 334.899 496.597 336.153 496.863C337.433 497.13 338.539 497.583 339.473 498.223C340.433 498.863 341.193 499.73 341.753 500.823C342.313 501.89 342.593 503.237 342.593 504.863C342.593 506.73 342.206 508.277 341.433 509.503C340.686 510.73 339.673 511.69 338.393 512.383L344.033 522.463H336.353L331.873 513.743H329.233V522.463H322.353ZM329.233 508.303H331.713C334.486 508.303 335.873 507.157 335.873 504.863C335.873 503.743 335.513 502.97 334.793 502.543C334.099 502.117 333.073 501.903 331.713 501.903H329.233V508.303Z" stroke="white"/>
<path d="M347.548 522.463V496.463H357.388C358.775 496.463 360.095 496.597 361.348 496.863C362.628 497.13 363.735 497.583 364.668 498.223C365.628 498.863 366.388 499.73 366.948 500.823C367.508 501.89 367.788 503.237 367.788 504.863C367.788 506.73 367.401 508.277 366.628 509.503C365.881 510.73 364.868 511.69 363.588 512.383L369.228 522.463H361.548L357.068 513.743H354.428V522.463H347.548ZM354.428 508.303H356.908C359.681 508.303 361.068 507.157 361.068 504.863C361.068 503.743 360.708 502.97 359.988 502.543C359.295 502.117 358.268 501.903 356.908 501.903H354.428V508.303Z" stroke="white"/>
<path d="M383.703 522.943C381.89 522.943 380.237 522.637 378.743 522.023C377.277 521.41 376.01 520.53 374.943 519.383C373.903 518.21 373.09 516.783 372.503 515.103C371.917 513.397 371.623 511.477 371.623 509.343C371.623 507.21 371.917 505.317 372.503 503.663C373.09 501.983 373.903 500.583 374.943 499.463C376.01 498.317 377.277 497.45 378.743 496.863C380.237 496.277 381.89 495.983 383.703 495.983C385.49 495.983 387.13 496.277 388.623 496.863C390.117 497.45 391.383 498.317 392.423 499.463C393.49 500.61 394.317 502.01 394.903 503.663C395.49 505.317 395.783 507.21 395.783 509.343C395.783 511.477 395.49 513.397 394.903 515.103C394.317 516.783 393.49 518.21 392.423 519.383C391.383 520.53 390.117 521.41 388.623 522.023C387.13 522.637 385.49 522.943 383.703 522.943ZM383.703 517.023C385.277 517.023 386.503 516.343 387.383 514.983C388.29 513.597 388.743 511.717 388.743 509.343C388.743 506.97 388.29 505.143 387.383 503.863C386.503 502.557 385.277 501.903 383.703 501.903C382.13 501.903 380.89 502.557 379.983 503.863C379.103 505.143 378.663 506.97 378.663 509.343C378.663 511.717 379.103 513.597 379.983 514.983C380.89 516.343 382.13 517.023 383.703 517.023Z" stroke="white"/>
<path d="M400.439 522.463V496.463H410.279C411.665 496.463 412.985 496.597 414.239 496.863C415.519 497.13 416.625 497.583 417.559 498.223C418.519 498.863 419.279 499.73 419.839 500.823C420.399 501.89 420.679 503.237 420.679 504.863C420.679 506.73 420.292 508.277 419.519 509.503C418.772 510.73 417.759 511.69 416.479 512.383L422.119 522.463H414.439L409.959 513.743H407.319V522.463H400.439ZM407.319 508.303H409.799C412.572 508.303 413.959 507.157 413.959 504.863C413.959 503.743 413.599 502.97 412.879 502.543C412.185 502.117 411.159 501.903 409.799 501.903H407.319V508.303Z" stroke="white"/>
</svg>
