<svg width="200" height="780" viewBox="0 0 200 780" fill="none" xmlns="http://www.w3.org/2000/svg">
<rect width="200" height="780" fill="#1A1B22"/>
<path d="M65.48 55.48H65.28L62.92 60.16L56.24 72.32L49.56 60.16L47.2 55.48H47V79H43.72V51.08H48.2L56.2 66.12H56.4L64.44 51.08H68.76V79H65.48V55.48ZM83.6209 79.48C82.2076 79.48 80.9276 79.2267 79.7809 78.72C78.6609 78.2133 77.6876 77.4933 76.8609 76.56C76.0609 75.6 75.4343 74.4667 74.9809 73.16C74.5543 71.8267 74.3409 70.3333 74.3409 68.68C74.3409 67.0533 74.5543 65.5733 74.9809 64.24C75.4343 62.9067 76.0609 61.7733 76.8609 60.84C77.6876 59.88 78.6609 59.1467 79.7809 58.64C80.9276 58.1333 82.2076 57.88 83.6209 57.88C85.0076 57.88 86.2476 58.1333 87.3409 58.64C88.4343 59.1467 89.3676 59.8533 90.1409 60.76C90.9143 61.64 91.5009 62.6933 91.9009 63.92C92.3276 65.1467 92.5409 66.4933 92.5409 67.96V69.48H77.7009V70.44C77.7009 71.32 77.8343 72.1467 78.1009 72.92C78.3943 73.6667 78.7943 74.32 79.3009 74.88C79.8343 75.44 80.4743 75.88 81.2209 76.2C81.9943 76.52 82.8609 76.68 83.8209 76.68C85.1276 76.68 86.2609 76.3733 87.2209 75.76C88.2076 75.1467 88.9676 74.2667 89.5009 73.12L91.7809 74.76C91.1143 76.1733 90.0743 77.32 88.6609 78.2C87.2476 79.0533 85.5676 79.48 83.6209 79.48ZM83.6209 60.56C82.7409 60.56 81.9409 60.72 81.2209 61.04C80.5009 61.3333 79.8743 61.76 79.3409 62.32C78.8343 62.88 78.4343 63.5467 78.1409 64.32C77.8476 65.0667 77.7009 65.8933 77.7009 66.8V67.08H89.1009V66.64C89.1009 64.8 88.5943 63.3333 87.5809 62.24C86.5943 61.12 85.2743 60.56 83.6209 60.56ZM97.8141 58.36H101.014V66.96H111.334V58.36H114.534V79H111.334V69.76H101.014V79H97.8141V58.36ZM138.25 79.48C135.636 79.48 133.516 78.6267 131.89 76.92C130.29 75.2133 129.396 72.8133 129.21 69.72H124.53V79H121.33V58.36H124.53V67H129.29C129.556 64.0933 130.476 61.8533 132.05 60.28C133.65 58.68 135.716 57.88 138.25 57.88C139.61 57.88 140.85 58.1333 141.97 58.64C143.09 59.12 144.036 59.8267 144.81 60.76C145.61 61.6667 146.223 62.7867 146.65 64.12C147.076 65.4533 147.29 66.9733 147.29 68.68C147.29 70.3867 147.076 71.9067 146.65 73.24C146.223 74.5733 145.61 75.7067 144.81 76.64C144.036 77.5467 143.09 78.2533 141.97 78.76C140.85 79.24 139.61 79.48 138.25 79.48ZM138.25 76.64C139.956 76.64 141.316 76.1333 142.33 75.12C143.343 74.1067 143.85 72.4533 143.85 70.16V67.2C143.85 64.9067 143.343 63.2533 142.33 62.24C141.316 61.2267 139.956 60.72 138.25 60.72C136.543 60.72 135.183 61.2267 134.17 62.24C133.156 63.2533 132.65 64.9067 132.65 67.2V70.16C132.65 72.4533 133.156 74.1067 134.17 75.12C135.183 76.1333 136.543 76.64 138.25 76.64Z" fill="white"/>
<rect x="40" y="128" width="120" height="120" fill="#1A1B22"/>
<path d="M94.2696 205.547V199.431C94.2696 197.87 95.5443 196.605 97.1169 196.605H102.865C103.62 196.605 104.345 196.902 104.879 197.433C105.413 197.963 105.713 198.682 105.713 199.431V205.547C105.708 206.196 105.964 206.82 106.425 207.28C106.885 207.741 107.512 208 108.166 208H112.088C113.919 208.005 115.678 207.286 116.974 206.002C118.271 204.718 119 202.974 119 201.156V183.734C119 182.265 118.344 180.872 117.209 179.929L103.868 169.352C101.547 167.497 98.2222 167.557 95.9708 169.494L82.934 179.929C81.7455 180.844 81.0351 182.241 81 183.734V201.138C81 204.928 84.0948 208 87.9123 208H91.7446C93.1025 208 94.206 206.912 94.2158 205.564L94.2696 205.547Z" fill="white"/>
<rect x="40" y="288" width="120" height="120" fill="#1A1B22"/>
<path d="M100 354.348C108.677 354.348 116 355.758 116 361.198C116 366.64 108.629 368 100 368C91.3247 368 84 366.59 84 361.15C84 355.708 91.3708 354.348 100 354.348ZM100 328C105.878 328 110.588 332.708 110.588 338.582C110.588 344.456 105.878 349.166 100 349.166C94.1238 349.166 89.412 344.456 89.412 338.582C89.412 332.708 94.1238 328 100 328Z" fill="white"/>
<rect x="40" y="448" width="120" height="120" fill="#1A1B22"/>
<path d="M111.241 519.309C112.014 518.541 113.254 518.541 114.027 519.309L119.136 523.433H119.225C120.258 524.478 120.258 526.172 119.225 527.216C118.191 528.261 116.515 528.261 115.481 527.216L111.241 522.357L111.081 522.175C110.781 521.796 110.615 521.323 110.615 520.833C110.615 520.261 110.841 519.712 111.241 519.309ZM97.1553 488C101.705 488 106.069 489.827 109.286 493.079C112.503 496.331 114.311 500.741 114.311 505.34C114.311 514.916 106.63 522.68 97.1553 522.68C87.6807 522.68 80 514.916 80 505.34C80 495.763 87.6807 488 97.1553 488Z" fill="white"/>
<rect x="40" y="608" width="120" height="120" fill="#1A1B22"/>
<path d="M101.434 648C102.947 648 104.316 648.84 105.073 650.08C105.441 650.68 105.686 651.42 105.624 652.2C105.584 652.8 105.768 653.4 106.095 653.96C107.137 655.66 109.447 656.3 111.245 655.34C113.269 654.18 115.824 654.88 116.989 656.86L118.358 659.22C119.544 661.2 118.889 663.74 116.846 664.88C115.108 665.9 114.495 668.16 115.537 669.88C115.864 670.42 116.232 670.88 116.805 671.16C117.52 671.54 118.072 672.14 118.46 672.74C119.217 673.98 119.155 675.5 118.419 676.84L116.989 679.24C116.232 680.52 114.822 681.32 113.371 681.32C112.656 681.32 111.858 681.12 111.204 680.72C110.673 680.38 110.06 680.26 109.406 680.26C107.382 680.26 105.686 681.92 105.624 683.9C105.624 686.2 103.744 688 101.394 688H98.6138C96.2429 688 94.3625 686.2 94.3625 683.9C94.3216 681.92 92.6252 680.26 90.6017 680.26C89.9272 680.26 89.314 680.38 88.8031 680.72C88.149 681.12 87.3314 681.32 86.6365 681.32C85.1649 681.32 83.7546 680.52 82.9983 679.24L81.588 676.84C80.8318 675.54 80.7909 673.98 81.5472 672.74C81.8742 672.14 82.4874 671.54 83.1823 671.16C83.7546 670.88 84.1225 670.42 84.47 669.88C85.4919 668.16 84.8787 665.9 83.1414 664.88C81.1179 663.74 80.4639 661.2 81.6289 659.22L82.9983 656.86C84.1838 654.88 86.7183 654.18 88.7622 655.34C90.5404 656.3 92.85 655.66 93.8924 653.96C94.2194 653.4 94.4034 652.8 94.3625 652.2C94.3216 651.42 94.5465 650.68 94.9348 650.08C95.6911 648.84 97.0605 648.04 98.5525 648H101.434ZM100.024 662.36C96.8152 662.36 94.2194 664.88 94.2194 668.02C94.2194 671.16 96.8152 673.66 100.024 673.66C103.233 673.66 105.768 671.16 105.768 668.02C105.768 664.88 103.233 662.36 100.024 662.36Z" fill="white"/>
</svg>