<svg width="160" height="160" viewBox="0 0 160 160" fill="none" xmlns="http://www.w3.org/2000/svg">
<rect x="1" y="1" width="158" height="158" fill="white"/>
<rect width="160" height="160" transform="matrix(-1 0 0 1 160 0)" fill="#3C39EC"/>
<path d="M150 10L148.256 12.4412" stroke="white"/>
<path d="M130 10L128.512 12.6047" stroke="white"/>
<path d="M110 10L108.818 12.7574" stroke="white"/>
<path d="M90 10L89.1758 12.8846" stroke="white"/>
<path d="M70 10L69.5757 12.9698" stroke="white"/>
<path d="M50 10L50 13" stroke="white"/>
<path d="M30 10L30.4243 12.9698" stroke="white"/>
<path d="M10 10L10.8242 12.8846" stroke="white"/>
<path d="M150 30L148.079 32.3047" stroke="white"/>
<path d="M130 30L128.336 32.4962" stroke="white"/>
<path d="M110 30L108.556 32.8885" stroke="white"/>
<path d="M90 30L88.6754 33.9737" stroke="white"/>
<path d="M70 30L69.212 34.7279" stroke="white"/>
<path d="M50 30L50 35" stroke="white"/>
<path d="M30 30L30.788 34.7279" stroke="white"/>
<path d="M10 30L11.3246 33.9737" stroke="white"/>
<path d="M150 50L147.879 52.1213" stroke="white"/>
<path d="M130 50L127.506 53.1174" stroke="white"/>
<path d="M110 50L107.21 54.6499" stroke="white"/>
<path d="M90 50L87.5722 56.0695" stroke="white"/>
<path d="M70 50L68.5777 57.1116" stroke="white"/>
<path d="M50 50L50 57.5" stroke="white"/>
<path d="M30 50L31.4223 57.1116" stroke="white"/>
<path d="M10 50L12.4278 56.0695" stroke="white"/>
<path d="M150 70L146.883 72.4939" stroke="white"/>
<path d="M130 70L125.858 74.1421" stroke="white"/>
<path d="M110 70L105.5 76" stroke="white"/>
<path d="M90 70L86.0557 77.8885" stroke="white"/>
<path d="M70 70L67.6493 79.4028" stroke="white"/>
<path d="M50 70L50 80" stroke="white"/>
<path d="M30 70L32.3507 79.4029" stroke="white"/>
<path d="M10 70L13.9443 77.8885" stroke="white"/>
<path d="M150 90L145.35 92.7899" stroke="white"/>
<path d="M130 90L124 94.5" stroke="white"/>
<path d="M110 90L103.358 96.6421" stroke="white"/>
<path d="M90 90L83.906 99.141" stroke="white"/>
<path d="M70 90L66.1754 101.474" stroke="white"/>
<path d="M50 90L50 102.5" stroke="white"/>
<path d="M30 90L33.8245 101.474" stroke="white"/>
<path d="M10 90L16.094 99.141" stroke="white"/>
<path d="M150 110L143.93 112.428" stroke="white"/>
<path d="M130 110L122.111 113.944" stroke="white"/>
<path d="M110 110L100.859 116.094" stroke="white"/>
<path d="M90 110L80.8579 119.142" stroke="white"/>
<path d="M70 110L63.5557 122.889" stroke="white"/>
<path d="M50 110L50 125" stroke="white"/>
<path d="M30 110L36.4443 122.889" stroke="white"/>
<path d="M10 110L19.1421 119.142" stroke="white"/>
<path d="M150 130L142.888 131.422" stroke="white"/>
<path d="M130 130L120.597 132.351" stroke="white"/>
<path d="M110 130L98.5263 133.825" stroke="white"/>
<path d="M90 130L77.1115 136.444" stroke="white"/>
<path d="M70 130L58.3578 141.642" stroke="white"/>
<path d="M50 130L50 147.5" stroke="white"/>
<path d="M30 130L41.6421 141.642" stroke="white"/>
<path d="M10 130L22.8885 136.444" stroke="white"/>
<path d="M150 150L142.5 150" stroke="white"/>
<path d="M130 150L120 150" stroke="white"/>
<path d="M110 150L97.5 150" stroke="white"/>
<path d="M90 150L75 150" stroke="white"/>
<path d="M70 150L52.5 150" stroke="white"/>
<path d="M30 150L47.5 150" stroke="white"/>
<path d="M10 150L25 150" stroke="white"/>
<rect x="1" y="1" width="158" height="158" stroke="white" stroke-width="2"/>
</svg>
