<svg width="160" height="160" viewBox="0 0 160 160" fill="none" xmlns="http://www.w3.org/2000/svg">
<rect x="1" y="1" width="158" height="158" fill="white"/>
<rect width="160" height="160" fill="#3C39EC"/>
<path d="M11.196 12.4878L20.1325 8.00005" stroke="white"/>
<path d="M31.1963 12.4878L40.9124 10.1221" stroke="white"/>
<path d="M51.1963 12.4878L61.1939 12.7042" stroke="white"/>
<path d="M71.196 12.4875L80.6199 15.8329" stroke="white"/>
<path d="M91.1963 12.4878L98.4728 19.3473" stroke="white"/>
<path d="M111.196 12.4878L114.286 21.9984" stroke="white"/>
<path d="M131.196 12.4878L130.075 22.4247" stroke="white"/>
<path d="M151.196 12.4878L147.851 21.9116" stroke="white"/>
<path d="M11.1963 32.4878L19.4295 26.8121" stroke="white"/>
<path d="M31.1963 32.4878L40.3964 28.569" stroke="white"/>
<path d="M51.1963 32.4878L61.0436 30.7469" stroke="white"/>
<path d="M71.1963 32.4878L81.1332 33.6095" stroke="white"/>
<path d="M91.1963 32.4878L99.6515 37.8272" stroke="white"/>
<path d="M111.196 32.4878L112.761 42.3647" stroke="white"/>
<path d="M131.196 32.4878L125.857 40.943" stroke="white"/>
<path d="M151.196 32.4878L144.337 39.7643" stroke="white"/>
<path d="M11.1963 52.4878L18.2674 45.4167" stroke="white"/>
<path d="M31.1963 52.4878L39.2865 46.6099" stroke="white"/>
<path d="M51.1963 52.4878L60.1064 47.9479" stroke="white"/>
<path d="M71.1963 52.4878L80.7069 49.3976" stroke="white"/>
<path d="M91.1963 52.4878L101.073 50.9235" stroke="white"/>
<path d="M111.196 52.4878H112.196" stroke="white"/>
<path d="M131.196 52.4878L121.319 54.0522" stroke="white"/>
<path d="M151.196 52.4878L141.686 55.578" stroke="white"/>
<path d="M11.1963 72.4878L16.6132 64.082" stroke="white"/>
<path d="M31.1963 72.4878L37.4699 64.7005" stroke="white"/>
<path d="M51.1963 72.4878L58.0296 65.1867" stroke="white"/>
<path d="M71.1963 72.4878L78.0558 65.2113" stroke="white"/>
<path d="M91.1963 72.4878L96.5357 64.0326" stroke="white"/>
<path d="M111.196 72.4878L109.632 62.6109" stroke="white"/>
<path d="M131.196 72.4878L122.741 67.1484" stroke="white"/>
<path d="M151.196 72.4875L141.259 71.3659" stroke="white"/>
<path d="M11.196 92.4875L14.5723 83.0747" stroke="white"/>
<path d="M31.1963 92.4878L35.1334 83.2955" stroke="white"/>
<path d="M51.1963 92.4878L55.2413 83.3424" stroke="white"/>
<path d="M71.1963 92.4878L74.5416 83.064" stroke="white"/>
<path d="M91.1963 92.4878L92.318 82.5509" stroke="white"/>
<path d="M111.196 92.4878L108.106 82.9772" stroke="white"/>
<path d="M131.196 92.4878L123.92 85.6283" stroke="white"/>
<path d="M151.196 92.4878L141.772 89.1425" stroke="white"/>
<path d="M11.1963 112.488L12.3383 102.553" stroke="white"/>
<path d="M31.1963 112.488L32.6105 102.588" stroke="white"/>
<path d="M51.1963 112.488L52.3831 102.558" stroke="white"/>
<path d="M71.1963 112.488L71.4127 102.49" stroke="white"/>
<path d="M91.1963 112.488L89.4554 102.64" stroke="white"/>
<path d="M111.196 112.488L106.656 103.578" stroke="white"/>
<path d="M131.196 112.488L123.895 105.654" stroke="white"/>
<path d="M151.196 112.488L142.051 108.443" stroke="white"/>
<path d="M11.1963 132.488L10.101 122.548" stroke="white"/>
<path d="M31.1963 132.488L30.1663 122.541" stroke="white"/>
<path d="M51.1963 132.488L49.7821 122.588" stroke="white"/>
<path d="M71.1963 132.488L68.8306 122.772" stroke="white"/>
<path d="M91.1963 132.488L87.2775 123.288" stroke="white"/>
<path d="M111.196 132.488L105.318 124.398" stroke="white"/>
<path d="M131.196 132.488L123.409 126.214" stroke="white"/>
<path d="M151.196 132.488L142.004 128.551" stroke="white"/>
<path d="M11.1963 152.488L8.00015 143.012" stroke="white"/>
<path d="M31.1963 152.488L27.9458 143.031" stroke="white"/>
<path d="M51.1963 152.488L47.5289 143.185" stroke="white"/>
<path d="M71.1963 152.488L66.7085 143.551" stroke="white"/>
<path d="M91.1963 152.488L85.5205 144.255" stroke="white"/>
<path d="M111.196 152.488L104.125 145.417" stroke="white"/>
<path d="M131.196 152.488L122.791 147.071" stroke="white"/>
<path d="M151.196 152.488L141.783 149.112" stroke="white"/>
<rect x="1" y="1" width="158" height="158" stroke="white" stroke-width="2"/>
</svg>
