<svg width="720" height="780" viewBox="0 0 720 780" fill="none" xmlns="http://www.w3.org/2000/svg">
<g clip-path="url(#clip0)">
<path opacity="0.111111" d="M127.543 221.681L238.343 -455.25L924.23 -446.818L1330.9 37.8289L534.211 706.328L127.543 221.681Z" fill="#1C1C20" stroke="white" stroke-width="2"/>
<path opacity="0.222222" d="M122.825 261.508L275.002 -340.581L892.828 -277.654L1222.11 192.607L452.105 731.769L122.825 261.508Z" fill="#1C1C20" stroke="white" stroke-width="2"/>
<path opacity="0.333333" d="M122.249 294.664L303.731 -231L849.71 -125.336L1107.46 321.102L380 741.102L122.249 294.664Z" fill="#1C1C20" stroke="white" stroke-width="2"/>
<path opacity="0.444444" d="M126.538 321.808L325.334 -127.369L797.206 9.07018L990.31 423.183L319.642 735.92L126.538 321.808Z" fill="#1C1C20" stroke="white" stroke-width="2"/>
<path opacity="0.555556" d="M136.333 343.671L340.702 -30.4465L737.736 124.778L873.977 499.098L272.574 717.991L136.333 343.671Z" fill="#1C1C20" stroke="white" stroke-width="2"/>
<path opacity="0.666667" d="M152.178 361.051L350.8 59.1189L673.778 221.289L761.715 549.475L240.115 689.237L152.178 361.051Z" fill="#1C1C20" stroke="white" stroke-width="2"/>
<path opacity="0.777778" d="M174.524 374.796L356.658 140.797L607.84 298.391L656.667 575.302L223.351 651.708L174.524 374.796Z" fill="#1C1C20" stroke="white" stroke-width="2"/>
<path opacity="0.888889" d="M203.718 385.798L359.353 214.184L542.424 356.165L561.825 577.921L223.119 607.554L203.718 385.798Z" fill="#1C1C20" stroke="white" stroke-width="2"/>
<path d="M240 394.977L360 279L480 394.977V559H240V394.977Z" fill="#1C1C20" stroke="white" stroke-width="2"/>
<path d="M324.369 452.224H326.121C326.841 451.2 327.393 449.888 327.777 448.288C328.161 446.688 328.353 444.648 328.353 442.168V437.248H338.433V452.224H340.785V457.6H338.937V454H326.217V457.6H324.369V452.224ZM336.417 452.224V439.024H330.273V442.312C330.273 444.856 330.105 446.912 329.769 448.48C329.449 450.032 329.017 451.24 328.473 452.104V452.224H336.417Z" fill="white"/>
<path d="M348.146 454.288C347.314 454.288 346.554 454.136 345.866 453.832C345.178 453.528 344.586 453.096 344.09 452.536C343.61 451.96 343.234 451.28 342.962 450.496C342.69 449.696 342.554 448.8 342.554 447.808C342.554 446.832 342.69 445.944 342.962 445.144C343.234 444.344 343.61 443.664 344.09 443.104C344.586 442.528 345.178 442.088 345.866 441.784C346.554 441.48 347.314 441.328 348.146 441.328C348.978 441.328 349.73 441.48 350.402 441.784C351.09 442.088 351.682 442.528 352.178 443.104C352.674 443.664 353.058 444.344 353.33 445.144C353.602 445.944 353.738 446.832 353.738 447.808C353.738 448.8 353.602 449.696 353.33 450.496C353.058 451.28 352.674 451.96 352.178 452.536C351.682 453.096 351.09 453.528 350.402 453.832C349.73 454.136 348.978 454.288 348.146 454.288ZM348.146 452.584C349.186 452.584 350.034 452.264 350.69 451.624C351.346 450.984 351.674 450.008 351.674 448.696V446.92C351.674 445.608 351.346 444.632 350.69 443.992C350.034 443.352 349.186 443.032 348.146 443.032C347.106 443.032 346.258 443.352 345.602 443.992C344.946 444.632 344.618 445.608 344.618 446.92V448.696C344.618 450.008 344.946 450.984 345.602 451.624C346.258 452.264 347.106 452.584 348.146 452.584Z" fill="white"/>
<path d="M361.789 454.288C360.925 454.288 360.149 454.144 359.461 453.856C358.773 453.568 358.189 453.12 357.709 452.512C357.229 451.904 356.853 451.12 356.581 450.16C356.325 449.184 356.197 448.008 356.197 446.632C356.197 444.856 356.309 443.336 356.533 442.072C356.773 440.808 357.149 439.768 357.661 438.952C358.173 438.136 358.821 437.528 359.605 437.128C360.405 436.712 361.373 436.456 362.509 436.36L366.397 436.048V437.992L362.269 438.328C361.565 438.392 360.973 438.528 360.493 438.736C360.013 438.944 359.613 439.272 359.293 439.72C358.989 440.152 358.749 440.728 358.573 441.448C358.413 442.168 358.293 443.064 358.213 444.136H358.309C358.677 443.288 359.149 442.656 359.725 442.24C360.317 441.824 361.093 441.616 362.053 441.616C362.837 441.616 363.557 441.76 364.213 442.048C364.869 442.336 365.429 442.752 365.893 443.296C366.357 443.824 366.717 444.488 366.973 445.288C367.245 446.072 367.381 446.968 367.381 447.976C367.381 448.92 367.245 449.776 366.973 450.544C366.701 451.312 366.317 451.976 365.821 452.536C365.325 453.096 364.733 453.528 364.045 453.832C363.373 454.136 362.621 454.288 361.789 454.288ZM361.885 452.584C362.381 452.584 362.837 452.504 363.253 452.344C363.669 452.184 364.029 451.944 364.333 451.624C364.637 451.304 364.877 450.912 365.053 450.448C365.229 449.984 365.317 449.44 365.317 448.816V447.304C365.317 445.96 364.989 444.96 364.333 444.304C363.677 443.648 362.797 443.32 361.693 443.32C360.541 443.32 359.677 443.608 359.101 444.184C358.541 444.744 358.261 445.48 358.261 446.392V448.6C358.261 449.944 358.589 450.944 359.245 451.6C359.901 452.256 360.781 452.584 361.885 452.584Z" fill="white"/>
<path d="M370.56 441.616H372.48V443.632H372.576C372.896 442.848 373.36 442.272 373.968 441.904C374.592 441.52 375.336 441.328 376.2 441.328C376.968 441.328 377.664 441.48 378.288 441.784C378.912 442.088 379.44 442.52 379.872 443.08C380.32 443.64 380.656 444.32 380.88 445.12C381.12 445.92 381.24 446.816 381.24 447.808C381.24 448.8 381.12 449.696 380.88 450.496C380.656 451.296 380.32 451.976 379.872 452.536C379.44 453.096 378.912 453.528 378.288 453.832C377.664 454.136 376.968 454.288 376.2 454.288C374.52 454.288 373.312 453.52 372.576 451.984H372.48V458.8H370.56V441.616ZM375.672 452.56C376.76 452.56 377.616 452.224 378.24 451.552C378.864 450.864 379.176 449.968 379.176 448.864V446.752C379.176 445.648 378.864 444.76 378.24 444.088C377.616 443.4 376.76 443.056 375.672 443.056C375.24 443.056 374.824 443.12 374.424 443.248C374.04 443.36 373.704 443.52 373.416 443.728C373.128 443.936 372.896 444.192 372.72 444.496C372.56 444.784 372.48 445.096 372.48 445.432V450.04C372.48 450.44 372.56 450.8 372.72 451.12C372.896 451.424 373.128 451.688 373.416 451.912C373.704 452.12 374.04 452.28 374.424 452.392C374.824 452.504 375.24 452.56 375.672 452.56Z" fill="white"/>
<path d="M389.161 454.288C388.329 454.288 387.569 454.136 386.881 453.832C386.193 453.528 385.601 453.096 385.105 452.536C384.625 451.96 384.249 451.28 383.977 450.496C383.705 449.696 383.569 448.8 383.569 447.808C383.569 446.832 383.705 445.944 383.977 445.144C384.249 444.344 384.625 443.664 385.105 443.104C385.601 442.528 386.193 442.088 386.881 441.784C387.569 441.48 388.329 441.328 389.161 441.328C389.993 441.328 390.745 441.48 391.417 441.784C392.105 442.088 392.697 442.528 393.193 443.104C393.689 443.664 394.073 444.344 394.345 445.144C394.617 445.944 394.753 446.832 394.753 447.808C394.753 448.8 394.617 449.696 394.345 450.496C394.073 451.28 393.689 451.96 393.193 452.536C392.697 453.096 392.105 453.528 391.417 453.832C390.745 454.136 389.993 454.288 389.161 454.288ZM389.161 452.584C390.201 452.584 391.049 452.264 391.705 451.624C392.361 450.984 392.689 450.008 392.689 448.696V446.92C392.689 445.608 392.361 444.632 391.705 443.992C391.049 443.352 390.201 443.032 389.161 443.032C388.121 443.032 387.273 443.352 386.617 443.992C385.961 444.632 385.633 445.608 385.633 446.92V448.696C385.633 450.008 385.961 450.984 386.617 451.624C387.273 452.264 388.121 452.584 389.161 452.584Z" fill="white"/>
<path d="M291.364 465.616H301.036V478H299.116V467.296H293.284V478H291.364V465.616Z" fill="white"/>
<path d="M309.802 478.288C308.97 478.288 308.21 478.136 307.522 477.832C306.834 477.528 306.242 477.096 305.746 476.536C305.266 475.96 304.89 475.28 304.618 474.496C304.346 473.696 304.21 472.8 304.21 471.808C304.21 470.832 304.346 469.944 304.618 469.144C304.89 468.344 305.266 467.664 305.746 467.104C306.242 466.528 306.834 466.088 307.522 465.784C308.21 465.48 308.97 465.328 309.802 465.328C310.634 465.328 311.386 465.48 312.058 465.784C312.746 466.088 313.338 466.528 313.834 467.104C314.33 467.664 314.714 468.344 314.986 469.144C315.258 469.944 315.394 470.832 315.394 471.808C315.394 472.8 315.258 473.696 314.986 474.496C314.714 475.28 314.33 475.96 313.834 476.536C313.338 477.096 312.746 477.528 312.058 477.832C311.386 478.136 310.634 478.288 309.802 478.288ZM309.802 476.584C310.842 476.584 311.69 476.264 312.346 475.624C313.002 474.984 313.33 474.008 313.33 472.696V470.92C313.33 469.608 313.002 468.632 312.346 467.992C311.69 467.352 310.842 467.032 309.802 467.032C308.762 467.032 307.914 467.352 307.258 467.992C306.602 468.632 306.274 469.608 306.274 470.92V472.696C306.274 474.008 306.602 474.984 307.258 475.624C307.914 476.264 308.762 476.584 309.802 476.584Z" fill="white"/>
<path d="M317.097 476.32H318.537L319.929 472.984C320.105 472.568 320.321 472.256 320.577 472.048C320.833 471.84 321.121 471.712 321.441 471.664V471.568C321.121 471.472 320.841 471.312 320.601 471.088C320.361 470.864 320.153 470.552 319.977 470.152L318.705 467.296H317.265V465.616H318.393C318.873 465.616 319.289 465.736 319.641 465.976C320.009 466.216 320.313 466.6 320.553 467.128L322.209 470.8H324.417V465.616H326.337V470.8H328.545L330.201 467.128C330.441 466.6 330.737 466.216 331.089 465.976C331.457 465.736 331.881 465.616 332.361 465.616H333.489V467.296H332.049L330.777 470.152C330.601 470.552 330.393 470.864 330.153 471.088C329.913 471.312 329.633 471.472 329.313 471.568V471.664C329.633 471.712 329.921 471.84 330.177 472.048C330.433 472.256 330.649 472.568 330.825 472.984L332.217 476.32H333.657V478H332.289C331.857 478 331.465 477.888 331.113 477.664C330.761 477.424 330.449 476.976 330.177 476.32L328.545 472.432H326.337V478H324.417V472.432H322.209L320.577 476.32C320.305 476.976 319.993 477.424 319.641 477.664C319.289 477.888 318.897 478 318.465 478H317.097V476.32Z" fill="white"/>
<path d="M345.411 478C344.691 478 344.171 477.808 343.851 477.424C343.547 477.04 343.355 476.56 343.275 475.984H343.155C342.883 476.752 342.435 477.328 341.811 477.712C341.187 478.096 340.443 478.288 339.579 478.288C338.267 478.288 337.243 477.952 336.507 477.28C335.787 476.608 335.427 475.696 335.427 474.544C335.427 473.376 335.851 472.48 336.699 471.856C337.563 471.232 338.899 470.92 340.707 470.92H343.155V469.696C343.155 468.816 342.915 468.144 342.435 467.68C341.955 467.216 341.219 466.984 340.227 466.984C339.475 466.984 338.843 467.152 338.331 467.488C337.835 467.824 337.419 468.272 337.083 468.832L335.931 467.752C336.267 467.08 336.803 466.512 337.539 466.048C338.275 465.568 339.203 465.328 340.323 465.328C341.827 465.328 342.995 465.696 343.827 466.432C344.659 467.168 345.075 468.192 345.075 469.504V476.32H346.491V478H345.411ZM339.891 476.656C340.371 476.656 340.811 476.6 341.211 476.488C341.611 476.376 341.955 476.216 342.243 476.008C342.531 475.8 342.755 475.56 342.915 475.288C343.075 475.016 343.155 474.72 343.155 474.4V472.36H340.611C339.507 472.36 338.699 472.52 338.187 472.84C337.691 473.16 337.443 473.624 337.443 474.232V474.736C337.443 475.344 337.659 475.816 338.091 476.152C338.539 476.488 339.139 476.656 339.891 476.656Z" fill="white"/>
<path d="M347.618 476.32H349.25C349.458 476.032 349.642 475.688 349.802 475.288C349.962 474.888 350.098 474.408 350.21 473.848C350.322 473.288 350.41 472.624 350.474 471.856C350.538 471.088 350.57 470.184 350.57 469.144V465.616H358.946V478H357.026V467.296H352.394V469.192C352.394 470.392 352.346 471.44 352.25 472.336C352.17 473.232 352.05 474 351.89 474.64C351.746 475.28 351.57 475.808 351.362 476.224C351.154 476.624 350.93 476.944 350.69 477.184C350.386 477.488 350.05 477.704 349.682 477.832C349.314 477.944 348.874 478 348.362 478H347.618V476.32Z" fill="white"/>
<path d="M367.716 478.288C366.884 478.288 366.124 478.136 365.436 477.832C364.748 477.528 364.156 477.096 363.66 476.536C363.18 475.96 362.804 475.28 362.532 474.496C362.26 473.696 362.124 472.8 362.124 471.808C362.124 470.832 362.26 469.944 362.532 469.144C362.804 468.344 363.18 467.664 363.66 467.104C364.156 466.528 364.748 466.088 365.436 465.784C366.124 465.48 366.884 465.328 367.716 465.328C368.548 465.328 369.3 465.48 369.972 465.784C370.66 466.088 371.252 466.528 371.748 467.104C372.244 467.664 372.628 468.344 372.9 469.144C373.172 469.944 373.308 470.832 373.308 471.808C373.308 472.8 373.172 473.696 372.9 474.496C372.628 475.28 372.244 475.96 371.748 476.536C371.252 477.096 370.66 477.528 369.972 477.832C369.3 478.136 368.548 478.288 367.716 478.288ZM367.716 476.584C368.756 476.584 369.604 476.264 370.26 475.624C370.916 474.984 371.244 474.008 371.244 472.696V470.92C371.244 469.608 370.916 468.632 370.26 467.992C369.604 467.352 368.756 467.032 367.716 467.032C366.676 467.032 365.828 467.352 365.172 467.992C364.516 468.632 364.188 469.608 364.188 470.92V472.696C364.188 474.008 364.516 474.984 365.172 475.624C365.828 476.264 366.676 476.584 367.716 476.584Z" fill="white"/>
<path d="M376.466 465.616H382.706C383.714 465.616 384.506 465.904 385.082 466.48C385.658 467.04 385.946 467.8 385.946 468.76C385.946 470.312 385.138 471.184 383.522 471.376V471.472C384.482 471.552 385.194 471.856 385.658 472.384C386.138 472.896 386.378 473.536 386.378 474.304C386.378 474.8 386.298 475.272 386.138 475.72C385.994 476.168 385.778 476.56 385.49 476.896C385.202 477.232 384.85 477.504 384.434 477.712C384.018 477.904 383.546 478 383.018 478H376.466V465.616ZM382.442 476.416C383.018 476.416 383.474 476.264 383.81 475.96C384.146 475.656 384.314 475.224 384.314 474.664V474.112C384.314 473.552 384.146 473.12 383.81 472.816C383.474 472.512 383.018 472.36 382.442 472.36H378.386V476.416H382.442ZM382.202 470.8C382.73 470.8 383.138 470.672 383.426 470.416C383.73 470.144 383.882 469.76 383.882 469.264V468.736C383.882 468.24 383.73 467.864 383.426 467.608C383.138 467.336 382.73 467.2 382.202 467.2H378.386V470.8H382.202Z" fill="white"/>
<path d="M398.731 478C398.011 478 397.491 477.808 397.171 477.424C396.867 477.04 396.675 476.56 396.595 475.984H396.475C396.203 476.752 395.755 477.328 395.131 477.712C394.507 478.096 393.763 478.288 392.899 478.288C391.587 478.288 390.563 477.952 389.827 477.28C389.107 476.608 388.747 475.696 388.747 474.544C388.747 473.376 389.171 472.48 390.019 471.856C390.883 471.232 392.219 470.92 394.027 470.92H396.475V469.696C396.475 468.816 396.235 468.144 395.755 467.68C395.275 467.216 394.539 466.984 393.547 466.984C392.795 466.984 392.163 467.152 391.651 467.488C391.155 467.824 390.739 468.272 390.403 468.832L389.251 467.752C389.587 467.08 390.123 466.512 390.859 466.048C391.595 465.568 392.523 465.328 393.643 465.328C395.147 465.328 396.315 465.696 397.147 466.432C397.979 467.168 398.395 468.192 398.395 469.504V476.32H399.811V478H398.731ZM393.211 476.656C393.691 476.656 394.131 476.6 394.531 476.488C394.931 476.376 395.275 476.216 395.563 476.008C395.851 475.8 396.075 475.56 396.235 475.288C396.395 475.016 396.475 474.72 396.475 474.4V472.36H393.931C392.827 472.36 392.019 472.52 391.507 472.84C391.011 473.16 390.763 473.624 390.763 474.232V474.736C390.763 475.344 390.979 475.816 391.411 476.152C391.859 476.488 392.459 476.656 393.211 476.656Z" fill="white"/>
<path d="M404.77 467.296H400.546V465.616H410.914V467.296H406.69V478H404.77V467.296Z" fill="white"/>
<path d="M413.427 465.616H415.347V470.104H418.875C420.123 470.104 421.115 470.456 421.851 471.16C422.587 471.864 422.955 472.832 422.955 474.064C422.955 475.312 422.595 476.28 421.875 476.968C421.155 477.656 420.163 478 418.899 478H413.427V465.616ZM418.611 476.32C419.331 476.32 419.891 476.184 420.291 475.912C420.691 475.64 420.891 475.184 420.891 474.544V473.536C420.891 472.896 420.691 472.448 420.291 472.192C419.891 471.92 419.331 471.784 418.611 471.784H415.347V476.32H418.611Z" fill="white"/>
<path d="M426.784 473.56L426.208 466.12V461.248H428.32V466.12L427.744 473.56H426.784ZM427.264 478.288C426.752 478.288 426.376 478.16 426.136 477.904C425.912 477.648 425.8 477.312 425.8 476.896V476.584C425.8 476.168 425.912 475.832 426.136 475.576C426.376 475.32 426.752 475.192 427.264 475.192C427.776 475.192 428.144 475.32 428.368 475.576C428.608 475.832 428.728 476.168 428.728 476.584V476.896C428.728 477.312 428.608 477.648 428.368 477.904C428.144 478.16 427.776 478.288 427.264 478.288Z" fill="white"/>
</g>
<defs>
<clipPath id="clip0">
<rect width="720" height="780" fill="white"/>
</clipPath>
</defs>
</svg>
